# Blender v2.93.1 OBJ File: ''
# www.blender.org
mtllib rock2.mtl
o rock2
v -0.792884 -0.746913 0.792894
v -0.822044 -0.818769 0.521183
v -0.555314 -0.907139 0.555308
v -0.538313 -0.841208 0.856109
v -0.219037 -1.002471 0.571901
v -0.204066 -0.843953 0.835556
v 0.184990 -0.911651 0.516910
v 0.135901 -0.790815 0.803355
v 0.531820 -0.848167 0.506247
v 0.475722 -0.786261 0.810335
v 0.820325 -0.760590 0.446301
v 0.791845 -0.754493 0.778482
v -0.860792 -0.933984 0.217241
v -0.524845 -0.944670 0.192474
v -0.164621 -0.963683 0.164612
v 0.242256 -1.005377 0.153790
v 0.601175 -0.891042 0.147987
v 0.886210 -0.815880 0.113126
v -0.854450 -0.964854 -0.139816
v -0.522223 -0.993457 -0.183417
v -0.149090 -1.030691 -0.239471
v 0.279742 -1.061049 -0.279662
v 0.630751 -0.913689 -0.235016
v 0.918183 -0.817007 -0.236877
v -0.876490 -0.945432 -0.508903
v -0.526690 -0.960486 -0.562199
v -0.151520 -0.972509 -0.646531
v 0.265100 -1.005202 -0.689610
v 0.600135 -0.881534 -0.599986
v 0.908876 -0.813309 -0.586375
v -0.777841 -0.851938 -0.794837
v -0.445866 -0.820712 -0.841309
v -0.111032 -0.847064 -0.915611
v 0.230935 -0.777114 -0.898344
v 0.574584 -0.800853 -0.891362
v 0.956471 -0.800077 -0.956427
v -0.774416 0.791597 0.774464
v -0.500552 0.855293 0.859322
v -0.556081 0.941246 0.556191
v -0.824827 0.801857 0.482325
v -0.185402 0.971770 0.944018
v -0.189240 0.986853 0.583959
v 0.181461 0.923043 0.820870
v 0.230708 1.132001 0.578876
v 0.513400 0.910295 0.778936
v 0.596184 1.044140 0.499644
v 0.856892 0.929712 0.756783
v 0.881836 0.942547 0.435588
v -0.581251 0.957271 0.188362
v -0.861950 0.820661 0.164578
v -0.201618 1.078836 0.201618
v 0.224294 1.127000 0.145712
v 0.573404 0.999338 0.099347
v 0.922916 0.958332 0.087790
v -0.520260 0.930162 -0.190565
v -0.838217 0.845553 -0.182956
v -0.144494 1.066164 -0.215166
v 0.274638 1.073785 -0.274638
v 0.610161 0.956384 -0.267907
v 0.954537 0.955929 -0.273668
v -0.473946 0.908930 -0.540588
v -0.778617 0.823816 -0.507447
v -0.106462 1.053103 -0.602237
v 0.291590 1.074625 -0.682266
v 0.622927 0.948805 -0.622926
v 0.950235 0.933881 -0.619563
v -0.438344 0.919531 -0.897122
v -0.749860 0.829003 -0.850278
v -0.095897 1.025828 -1.010646
v 0.291026 1.019712 -1.003882
v 0.600116 0.879246 -0.893879
v 0.897362 0.869393 -0.897362
v -0.589210 -0.556383 0.982421
v -0.869442 -0.485204 0.869541
v -0.210609 -0.570816 0.971663
v 0.186533 -0.544474 0.963116
v 0.596502 -0.545976 0.969788
v 0.821638 -0.431333 0.786016
v -0.575712 -0.168826 0.918005
v -0.911748 -0.150680 0.911863
v -0.213382 -0.178820 0.975208
v 0.207348 -0.182139 1.047056
v 0.634360 -0.143412 1.027653
v 0.846452 -0.094012 0.785403
v -0.581787 0.217136 0.980796
v -0.905196 0.204306 0.905296
v -0.207117 0.235526 1.048858
v 0.205578 0.258396 0.977044
v 0.549558 0.247968 0.865748
v 0.877048 0.262846 0.817402
v -0.545217 0.539982 0.886579
v -0.811772 0.498017 0.811767
v -0.218284 0.611703 0.992780
v 0.167610 0.622418 0.939571
v 0.510203 0.595223 0.836129
v 0.839954 0.594012 0.775575
v 0.943846 -0.493517 0.502747
v 1.031987 -0.544245 0.126756
v 1.059824 -0.525559 -0.290152
v 1.048602 -0.525623 -0.686385
v 0.990766 -0.465031 -0.990766
v 0.991958 -0.116859 0.486719
v 1.171210 -0.164419 0.132372
v 1.330978 -0.142426 -0.335401
v 1.196774 -0.138806 -0.772965
v 0.984389 -0.088275 -0.984389
v 0.958123 0.269803 0.494266
v 1.130451 0.286470 0.109047
v 1.076029 0.299455 -0.304321
v 1.089414 0.284335 -0.706440
v 0.957535 0.263102 -0.957535
v 0.881999 0.607481 0.446357
v 0.979639 0.646177 0.082434
v 0.939423 0.620946 -0.291281
v 0.980292 0.623411 -0.661368
v 1.047278 0.648232 -1.047277
v 0.649348 -0.514798 -1.001655
v 0.257772 -0.492450 -0.974626
v -0.122298 -0.520708 -0.968355
v -0.485936 -0.530854 -0.902690
v -0.801366 -0.532694 -0.844328
v 0.719314 -0.153437 -1.081740
v 0.308822 -0.142325 -1.120076
v -0.104217 -0.183774 -1.070395
v -0.500189 -0.205747 -1.018563
v -0.824371 -0.192412 -0.894250
v 0.720531 0.259865 -1.100018
v 0.299643 0.273787 -1.076992
v -0.111392 0.222510 -1.055486
v -0.563860 0.202982 -1.106671
v -0.947568 0.204336 -1.044859
v 0.705276 0.651455 -1.047741
v 0.314003 0.666958 -0.999936
v -0.085672 0.658076 -1.069999
v -0.520205 0.635649 -1.063159
v -0.887099 0.597745 -0.978893
v -0.912739 -0.605600 -0.566683
v -0.965598 -0.646265 -0.188493
v -1.006783 -0.651253 0.223515
v -0.901204 -0.546113 0.549856
v -0.991099 -0.241939 -0.607996
v -0.956338 -0.260306 -0.188319
v -1.039086 -0.248778 0.235749
v -1.043996 -0.223619 0.645116
v -1.152080 0.217725 -0.730671
v -1.175177 0.199312 -0.249785
v -1.248821 0.217707 0.250276
v -1.083784 0.197098 0.641307
v -0.944431 0.577218 -0.577943
v -1.064870 0.595429 -0.196895
v -1.035106 0.573498 0.226100
v -0.947585 0.547860 0.579015
vt 0.640273 0.687242
vt 0.597929 0.729631
vt 0.595613 0.679676
vt 0.539896 0.679266
vt 0.542261 0.727653
vt 0.480756 0.681229
vt 0.475287 0.732027
vt 0.423938 0.682475
vt 0.417128 0.733067
vt 0.371964 0.688399
vt 0.643574 0.732866
vt 0.595057 0.788693
vt 0.536419 0.791803
vt 0.470155 0.792082
vt 0.408881 0.791909
vt 0.367832 0.742496
vt 0.649141 0.844089
vt 0.649417 0.785281
vt 0.595439 0.850583
vt 0.535490 0.857162
vt 0.406950 0.854180
vt 0.361078 0.798576
vt 0.653176 0.904918
vt 0.596474 0.912944
vt 0.535630 0.923404
vt 0.467171 0.860689
vt 0.413201 0.914084
vt 0.362279 0.912699
vt 0.358457 0.856085
vt 0.637644 0.954325
vt 0.583426 0.963844
vt 0.527489 0.970847
vt 0.469713 0.924530
vt 0.416089 0.962558
vt 0.378970 0.625866
vt 0.418338 0.587888
vt 0.425668 0.637221
vt 0.367722 0.580239
vt 0.413802 0.529112
vt 0.370128 0.466407
vt 0.356824 0.526632
vt 0.377938 0.410202
vt 0.418563 0.460342
vt 0.387120 0.355063
vt 0.428792 0.401157
vt 0.476939 0.595748
vt 0.477184 0.646056
vt 0.476497 0.532395
vt 0.485795 0.464996
vt 0.439458 0.353309
vt 0.494292 0.406411
vt 0.533916 0.645859
vt 0.538445 0.592790
vt 0.543116 0.528577
vt 0.553297 0.461507
vt 0.497444 0.350024
vt 0.553923 0.404244
vt 0.588019 0.641523
vt 0.595563 0.590741
vt 0.605251 0.527348
vt 0.611025 0.406094
vt 0.618008 0.463728
vt 0.556387 0.348762
vt 0.644333 0.639137
vt 0.653698 0.586152
vt 0.671320 0.527389
vt 0.656265 0.410280
vt 0.670042 0.465185
vt 0.658263 0.363030
vt 0.308414 0.695577
vt 0.271662 0.733685
vt 0.262491 0.685510
vt 0.321779 0.739460
vt 0.275152 0.793514
vt 0.321086 0.850424
vt 0.324862 0.794193
vt 0.317800 0.908098
vt 0.273148 0.856844
vt 0.311191 0.959132
vt 0.271966 0.922022
vt 0.209328 0.733342
vt 0.206798 0.679266
vt 0.211560 0.792441
vt 0.213149 0.859651
vt 0.259886 0.968974
vt 0.209543 0.926149
vt 0.148232 0.679654
vt 0.146059 0.733306
vt 0.144317 0.794446
vt 0.143669 0.920648
vt 0.142158 0.861601
vt 0.201284 0.975000
vt 0.096177 0.691054
vt 0.091219 0.736429
vt 0.083353 0.856681
vt 0.083454 0.793253
vt 0.087568 0.914908
vt 0.088567 0.969441
vt 0.047686 0.697571
vt 0.039984 0.745109
vt 0.025000 0.800066
vt 0.031969 0.863222
vt 0.035907 0.917404
vt 0.039195 0.356254
vt 0.084718 0.403798
vt 0.034795 0.408752
vt 0.092278 0.356019
vt 0.146111 0.398269
vt 0.206898 0.350241
vt 0.148158 0.348762
vt 0.265033 0.354872
vt 0.212959 0.401164
vt 0.324483 0.365411
vt 0.277119 0.407064
vt 0.083605 0.465767
vt 0.030429 0.465820
vt 0.145147 0.462685
vt 0.216334 0.470008
vt 0.325496 0.419762
vt 0.281853 0.472542
vt 0.078169 0.529360
vt 0.025000 0.525919
vt 0.144356 0.533629
vt 0.273576 0.541084
vt 0.208787 0.544258
vt 0.325993 0.481600
vt 0.028716 0.581280
vt 0.082222 0.586322
vt 0.143110 0.595231
vt 0.264843 0.596753
vt 0.204260 0.596976
vt 0.317892 0.539795
vt 0.030107 0.636290
vt 0.082333 0.640561
vt 0.199134 0.649495
vt 0.139255 0.646168
vt 0.256003 0.646497
vt 0.301180 0.640617
vt 0.357183 0.041646
vt 0.410062 0.084851
vt 0.355631 0.095980
vt 0.419798 0.034982
vt 0.473543 0.084560
vt 0.476567 0.037038
vt 0.534700 0.080501
vt 0.588461 0.030315
vt 0.532834 0.027040
vt 0.642706 0.025000
vt 0.594126 0.078124
vt 0.402922 0.144442
vt 0.358585 0.155894
vt 0.467494 0.144978
vt 0.532324 0.137026
vt 0.595279 0.132878
vt 0.645870 0.076689
vt 0.405660 0.210224
vt 0.362881 0.211781
vt 0.535900 0.201923
vt 0.471908 0.211376
vt 0.650865 0.130109
vt 0.607224 0.198272
vt 0.409150 0.272919
vt 0.354668 0.274185
vt 0.534706 0.271593
vt 0.471115 0.275317
vt 0.602627 0.266928
vt 0.662912 0.261353
vt 0.379776 0.316114
vt 0.427110 0.315853
vt 0.478126 0.330652
vt 0.594602 0.319871
vt 0.537475 0.330957
vt 0.645834 0.306331
vt 0.049005 0.048281
vt 0.091556 0.087524
vt 0.043258 0.099710
vt 0.098023 0.032404
vt 0.152436 0.078542
vt 0.157236 0.025000
vt 0.218372 0.076194
vt 0.267316 0.039855
vt 0.215473 0.026347
vt 0.312589 0.048284
vt 0.274263 0.085568
vt 0.090484 0.145976
vt 0.036777 0.152630
vt 0.156029 0.136797
vt 0.224116 0.137959
vt 0.326418 0.092800
vt 0.288345 0.141532
vt 0.081505 0.221854
vt 0.025000 0.222301
vt 0.153327 0.216516
vt 0.289894 0.208754
vt 0.228273 0.215506
vt 0.336322 0.148329
vt 0.035505 0.285441
vt 0.100836 0.285347
vt 0.163729 0.280440
vt 0.288500 0.270568
vt 0.230522 0.277788
vt 0.331475 0.263078
vt 0.052232 0.330120
vt 0.108865 0.333256
vt 0.225400 0.326232
vt 0.165180 0.333876
vt 0.280418 0.317997
vt 0.328725 0.310786
vt 0.470402 0.971849
vt 0.354633 0.972270
vt 0.612319 0.352728
vt 0.143033 0.973625
vt 0.034159 0.973278
vt 0.327053 0.600793
vt 0.669163 0.197295
vt 0.339782 0.209122
vn -0.6401 -0.5809 0.5028
vn -0.2543 -0.9373 0.2382
vn -0.1936 -0.7396 0.6446
vn 0.1061 -0.7224 0.6833
vn 0.0313 -0.9814 0.1892
vn 0.0858 -0.7220 0.6866
vn 0.1480 -0.9480 0.2817
vn 0.0671 -0.8021 0.5934
vn 0.1575 -0.9510 0.2662
vn 0.5326 -0.7057 0.4673
vn -0.6802 -0.6701 0.2973
vn -0.1725 -0.9705 0.1683
vn -0.0519 -0.9957 0.0761
vn 0.1523 -0.9796 0.1310
vn 0.2675 -0.9488 0.1682
vn 0.6684 -0.7132 0.2112
vn -0.6478 -0.7611 0.0329
vn -0.6185 -0.7561 0.2140
vn -0.0680 -0.9975 0.0206
vn -0.0841 -0.9963 0.0156
vn 0.3228 -0.9464 -0.0058
vn 0.6276 -0.7628 0.1561
vn -0.6811 -0.6972 -0.2236
vn -0.1093 -0.9645 -0.2402
vn -0.1129 -0.9509 -0.2883
vn 0.1352 -0.9908 0.0073
vn 0.3494 -0.8801 -0.3213
vn 0.6492 -0.7557 -0.0871
vn 0.6407 -0.7678 0.0056
vn -0.4740 -0.5369 -0.6979
vn -0.1595 -0.6162 -0.7712
vn -0.1035 -0.6096 -0.7859
vn 0.1630 -0.9096 -0.3822
vn 0.1275 -0.5559 -0.8214
vn -0.4770 0.6436 0.5986
vn -0.3201 0.9369 0.1407
vn -0.5754 0.7803 0.2451
vn -0.3796 0.6292 0.6782
vn -0.1807 0.9696 0.1653
vn 0.1986 0.6343 0.7471
vn -0.1462 0.6703 0.7276
vn 0.1524 0.5835 0.7977
vn 0.0461 0.9682 0.2457
vn 0.5290 0.4778 0.7014
vn 0.1677 0.9525 0.2544
vn -0.3416 0.9397 0.0198
vn -0.6211 0.7748 0.1182
vn -0.2179 0.9755 0.0307
vn 0.0340 0.9991 0.0239
vn 0.7561 0.6118 0.2322
vn 0.2472 0.9656 -0.0807
vn -0.5759 0.8147 -0.0680
vn -0.3369 0.9386 -0.0742
vn -0.1982 0.9772 -0.0758
vn 0.1333 0.9904 -0.0373
vn 0.7441 0.6676 -0.0267
vn 0.1964 0.9794 -0.0478
vn -0.5658 0.8146 -0.1279
vn -0.3105 0.9488 -0.0579
vn -0.2032 0.9776 -0.0545
vn 0.1920 0.9757 -0.1057
vn 0.1571 0.9856 -0.0627
vn 0.7006 0.7121 -0.0449
vn -0.5145 0.7843 -0.3465
vn -0.2741 0.7886 -0.5505
vn -0.0971 0.7098 -0.6977
vn 0.0950 0.8163 -0.5698
vn 0.1239 0.7594 -0.6387
vn 0.4905 0.7592 -0.4278
vn -0.1746 -0.1984 0.9645
vn -0.7227 -0.3521 0.5947
vn 0.0679 -0.1765 0.9820
vn 0.0379 -0.3116 0.9495
vn 0.2099 -0.4085 0.8883
vn -0.1398 -0.0370 0.9895
vn -0.6412 -0.1954 0.7421
vn -0.0682 -0.0449 0.9967
vn -0.0333 -0.0626 0.9975
vn 0.7759 -0.2634 0.5732
vn 0.3709 0.0481 0.9274
vn -0.5398 0.1959 0.8186
vn -0.1504 0.1315 0.9798
vn -0.0900 0.0293 0.9955
vn 0.2945 0.2078 0.9328
vn 0.0856 0.0683 0.9940
vn 0.8148 0.0152 0.5795
vn -0.5228 0.3802 0.7630
vn -0.2596 0.2363 0.9364
vn 0.2265 0.1863 0.9560
vn -0.0571 0.1779 0.9824
vn 0.2329 0.1869 0.9544
vn 0.6946 0.1130 0.7104
vn 0.9506 -0.1841 0.2500
vn 0.9235 -0.3506 0.1560
vn 0.8864 -0.4624 0.0194
vn 0.4634 -0.6876 -0.5590
vn 0.8864 -0.4603 -0.0495
vn 0.9207 -0.0568 0.3860
vn 0.9596 -0.0734 0.2716
vn 0.9954 -0.0918 0.0280
vn 0.5849 -0.3060 -0.7512
vn 0.9394 -0.0566 -0.3381
vn 0.9173 0.0880 0.3882
vn 0.7423 0.1493 0.6532
vn 0.9387 0.2078 0.2749
vn 0.8532 0.3884 -0.3483
vn 0.9352 0.3540 -0.0047
vn 0.5662 0.0004 -0.8243
vn 0.9609 0.0910 0.2615
vn 0.9704 0.2131 0.1135
vn 0.9800 0.1945 -0.0423
vn 0.9731 0.2291 -0.0258
vn 0.6309 0.1074 -0.7684
vn 0.7132 0.7009 0.0039
vn -0.0564 -0.1585 -0.9858
vn 0.0079 -0.3044 -0.9525
vn 0.1041 -0.5670 -0.8171
vn -0.0690 -0.2765 -0.9585
vn -0.1688 -0.2506 -0.9533
vn 0.0926 -0.0334 -0.9951
vn -0.0261 -0.1356 -0.9904
vn -0.1050 -0.1357 -0.9852
vn -0.2080 -0.2108 -0.9551
vn -0.6077 -0.2300 -0.7601
vn 0.2234 -0.0318 -0.9742
vn -0.0559 0.0726 -0.9958
vn -0.0409 0.0956 -0.9946
vn -0.5938 -0.3080 -0.7433
vn -0.1360 -0.0361 -0.9901
vn 0.1020 0.2550 -0.9615
vn 0.7499 0.2137 -0.6261
vn 0.0473 0.0792 -0.9957
vn -0.0089 0.2201 -0.9754
vn -0.0799 0.2007 -0.9764
vn -0.5898 0.4082 -0.6968
vn -0.9650 -0.1440 -0.2191
vn -0.9862 -0.1585 -0.0486
vn -0.9669 -0.2165 0.1351
vn -0.9156 -0.3203 0.2430
vn -0.9241 -0.2811 -0.2590
vn -0.9655 -0.2441 -0.0901
vn -0.9710 -0.2380 0.0225
vn -0.9317 -0.2618 0.2518
vn -0.9582 -0.0050 -0.2859
vn -0.5754 -0.0957 -0.8123
vn -0.9973 0.0095 -0.0733
vn -0.9228 0.1093 0.3695
vn -0.9996 -0.0198 0.0180
vn -0.8447 0.4795 -0.2379
vn -0.8472 0.5235 -0.0906
vn -0.7597 0.5070 0.4073
vn -0.8381 0.5281 0.1368
usemtl Standardmaterial
s 1
f 1/1/1 3/2/2 4/3/3
f 3/2/2 6/4/4 4/3/3
f 5/5/5 8/6/6 6/4/4
f 7/7/7 10/8/8 8/6/6
f 9/9/9 12/10/10 10/8/8
f 2/11/11 14/12/12 3/2/2
f 14/12/12 5/5/5 3/2/2
f 15/13/13 7/7/7 5/5/5
f 16/14/14 9/9/9 7/7/7
f 17/15/15 11/16/16 9/9/9
f 19/17/17 14/12/12 13/18/18
f 20/19/19 15/13/13 14/12/12
f 21/20/20 16/14/14 15/13/13
f 16/14/14 23/21/21 17/15/15
f 23/21/21 18/22/22 17/15/15
f 25/23/23 20/19/19 19/17/17
f 26/24/24 21/20/20 20/19/19
f 27/25/25 22/26/26 21/20/20
f 22/26/26 29/27/27 23/21/21
f 23/21/21 30/28/28 24/29/29
f 31/30/30 26/24/24 25/23/23
f 32/31/31 27/25/25 26/24/24
f 33/32/32 28/33/33 27/25/25
f 28/33/33 35/34/34 29/27/27
f 35/34/34 30/28/28 29/27/27
f 37/35/35 39/36/36 40/37/37
f 38/38/38 42/39/39 39/36/36
f 43/40/40 42/39/39 41/41/41
f 45/42/42 44/43/43 43/40/40
f 47/44/44 46/45/45 45/42/42
f 40/37/37 49/46/46 50/47/47
f 39/36/36 51/48/48 49/46/46
f 44/43/43 51/48/48 42/39/39
f 46/45/45 52/49/49 44/43/43
f 48/50/50 53/51/51 46/45/45
f 49/46/46 56/52/52 50/47/47
f 51/48/48 55/53/53 49/46/46
f 52/49/49 57/54/54 51/48/48
f 53/51/51 58/55/55 52/49/49
f 54/56/56 59/57/57 53/51/51
f 55/53/53 62/58/58 56/52/52
f 57/54/54 61/59/59 55/53/53
f 58/55/55 63/60/60 57/54/54
f 58/55/55 65/61/61 64/62/62
f 60/63/63 65/61/61 59/57/57
f 61/59/59 68/64/64 62/58/58
f 63/60/60 67/65/65 61/59/59
f 64/62/62 69/66/66 63/60/60
f 64/62/62 71/67/67 70/68/68
f 65/61/61 72/69/69 71/67/67
f 1/70/1 73/71/70 74/72/71
f 4/73/3 75/74/72 73/71/70
f 8/75/6 75/74/72 6/76/4
f 10/77/8 76/78/73 8/75/6
f 12/79/10 77/80/74 10/77/8
f 74/72/71 79/81/75 80/82/76
f 73/71/70 81/83/77 79/81/75
f 76/78/73 81/83/77 75/74/72
f 77/80/74 82/84/78 76/78/73
f 78/85/79 83/86/80 77/80/74
f 79/81/75 86/87/81 80/82/76
f 81/83/77 85/88/82 79/81/75
f 82/84/78 87/89/83 81/83/77
f 82/84/78 89/90/84 88/91/85
f 84/92/86 89/90/84 83/86/80
f 85/88/82 92/93/87 86/87/81
f 87/89/83 91/94/88 85/88/82
f 87/89/83 94/95/89 93/96/90
f 88/91/85 95/97/91 94/95/89
f 89/90/84 96/98/92 95/97/91
f 91/94/88 37/99/35 92/93/87
f 93/96/90 38/100/38 91/94/88
f 94/95/89 41/101/41 93/96/90
f 95/97/91 43/102/40 94/95/89
f 96/98/92 45/103/42 95/97/91
f 12/104/10 97/105/93 78/106/79
f 11/107/16 98/108/94 97/105/93
f 24/109/29 98/108/94 18/110/22
f 30/111/28 99/112/95 24/109/29
f 36/113/96 100/114/97 30/111/28
f 78/106/79 102/115/98 84/116/86
f 97/105/93 103/117/99 102/115/98
f 99/112/95 103/117/99 98/108/94
f 100/114/97 104/118/100 99/112/95
f 101/119/101 105/120/102 100/114/97
f 84/116/86 107/121/103 90/122/104
f 102/115/98 108/123/105 107/121/103
f 104/118/100 108/123/105 103/117/99
f 104/118/100 110/124/106 109/125/107
f 106/126/108 110/124/106 105/120/102
f 107/121/103 96/127/92 90/122/104
f 108/123/105 112/128/109 107/121/103
f 109/125/107 113/129/110 108/123/105
f 109/125/107 115/130/111 114/131/112
f 111/132/113 115/130/111 110/124/106
f 112/128/109 47/133/44 96/127/92
f 113/129/110 48/134/50 112/128/109
f 113/129/110 60/135/63 54/136/56
f 114/131/112 66/137/114 60/135/63
f 115/130/111 72/138/69 66/137/114
f 36/139/96 117/140/115 101/141/101
f 35/142/34 118/143/116 117/140/115
f 34/144/117 119/145/118 118/143/116
f 32/146/31 119/145/118 33/147/32
f 31/148/30 120/149/119 32/146/31
f 101/141/101 122/150/120 106/151/108
f 117/140/115 123/152/121 122/150/120
f 118/143/116 124/153/122 123/152/121
f 119/145/118 125/154/123 124/153/122
f 121/155/124 125/154/123 120/149/119
f 106/151/108 127/156/125 111/157/113
f 123/152/121 127/156/125 122/150/120
f 123/152/121 129/158/126 128/159/127
f 125/154/123 129/158/126 124/153/122
f 126/160/128 130/161/129 125/154/123
f 111/157/113 132/162/130 116/163/131
f 128/159/127 132/162/130 127/156/125
f 128/159/127 134/164/132 133/165/133
f 129/158/126 135/166/134 134/164/132
f 130/161/129 136/167/135 135/166/134
f 132/162/130 72/168/69 116/163/131
f 133/165/133 71/169/67 132/162/130
f 134/164/132 70/170/68 133/165/133
f 134/164/132 67/171/65 69/172/66
f 135/166/134 68/173/64 67/171/65
f 31/174/30 137/175/136 121/176/124
f 25/177/23 138/178/137 137/175/136
f 19/179/17 139/180/138 138/178/137
f 2/181/11 139/180/138 13/182/18
f 1/183/1 140/184/139 2/181/11
f 121/176/124 141/185/140 126/186/128
f 137/175/136 142/187/141 141/185/140
f 139/180/138 142/187/141 138/178/137
f 140/184/139 143/188/142 139/180/138
f 74/189/71 144/190/143 140/184/139
f 126/186/128 145/191/144 131/192/145
f 141/185/140 146/193/146 145/191/144
f 143/188/142 146/193/146 142/187/141
f 143/188/142 148/194/147 147/195/148
f 80/196/76 148/194/147 144/190/143
f 145/191/144 136/197/135 131/192/145
f 146/193/146 149/198/149 145/191/144
f 147/195/148 150/199/150 146/193/146
f 147/195/148 152/200/151 151/201/152
f 148/194/147 92/202/87 152/200/151
f 149/198/149 68/203/64 136/197/135
f 150/199/150 62/204/58 149/198/149
f 150/199/150 50/205/47 56/206/52
f 151/201/152 40/207/37 50/205/47
f 152/200/151 37/208/35 40/207/37
f 1/1/1 2/11/11 3/2/2
f 3/2/2 5/5/5 6/4/4
f 5/5/5 7/7/7 8/6/6
f 7/7/7 9/9/9 10/8/8
f 9/9/9 11/16/16 12/10/10
f 2/11/11 13/18/18 14/12/12
f 14/12/12 15/13/13 5/5/5
f 15/13/13 16/14/14 7/7/7
f 16/14/14 17/15/15 9/9/9
f 17/15/15 18/22/22 11/16/16
f 19/17/17 20/19/19 14/12/12
f 20/19/19 21/20/20 15/13/13
f 21/20/20 22/26/26 16/14/14
f 16/14/14 22/26/26 23/21/21
f 23/21/21 24/29/29 18/22/22
f 25/23/23 26/24/24 20/19/19
f 26/24/24 27/25/25 21/20/20
f 27/25/25 28/33/33 22/26/26
f 22/26/26 28/33/33 29/27/27
f 23/21/21 29/27/27 30/28/28
f 31/30/30 32/31/31 26/24/24
f 32/31/31 33/32/32 27/25/25
f 33/32/32 34/209/117 28/33/33
f 28/33/33 34/209/117 35/34/34
f 35/34/34 36/210/96 30/28/28
f 37/35/35 38/38/38 39/36/36
f 38/38/38 41/41/41 42/39/39
f 43/40/40 44/43/43 42/39/39
f 45/42/42 46/45/45 44/43/43
f 47/44/44 48/50/50 46/45/45
f 40/37/37 39/36/36 49/46/46
f 39/36/36 42/39/39 51/48/48
f 44/43/43 52/49/49 51/48/48
f 46/45/45 53/51/51 52/49/49
f 48/50/50 54/56/56 53/51/51
f 49/46/46 55/53/53 56/52/52
f 51/48/48 57/54/54 55/53/53
f 52/49/49 58/55/55 57/54/54
f 53/51/51 59/57/57 58/55/55
f 54/56/56 60/63/63 59/57/57
f 55/53/53 61/59/59 62/58/58
f 57/54/54 63/60/60 61/59/59
f 58/55/55 64/62/62 63/60/60
f 58/55/55 59/57/57 65/61/61
f 60/63/63 66/211/114 65/61/61
f 61/59/59 67/65/65 68/64/64
f 63/60/60 69/66/66 67/65/65
f 64/62/62 70/68/68 69/66/66
f 64/62/62 65/61/61 71/67/67
f 65/61/61 66/211/114 72/69/69
f 1/70/1 4/73/3 73/71/70
f 4/73/3 6/76/4 75/74/72
f 8/75/6 76/78/73 75/74/72
f 10/77/8 77/80/74 76/78/73
f 12/79/10 78/85/79 77/80/74
f 74/72/71 73/71/70 79/81/75
f 73/71/70 75/74/72 81/83/77
f 76/78/73 82/84/78 81/83/77
f 77/80/74 83/86/80 82/84/78
f 78/85/79 84/92/86 83/86/80
f 79/81/75 85/88/82 86/87/81
f 81/83/77 87/89/83 85/88/82
f 82/84/78 88/91/85 87/89/83
f 82/84/78 83/86/80 89/90/84
f 84/92/86 90/212/104 89/90/84
f 85/88/82 91/94/88 92/93/87
f 87/89/83 93/96/90 91/94/88
f 87/89/83 88/91/85 94/95/89
f 88/91/85 89/90/84 95/97/91
f 89/90/84 90/212/104 96/98/92
f 91/94/88 38/100/38 37/99/35
f 93/96/90 41/101/41 38/100/38
f 94/95/89 43/102/40 41/101/41
f 95/97/91 45/103/42 43/102/40
f 96/98/92 47/213/44 45/103/42
f 12/104/10 11/107/16 97/105/93
f 11/107/16 18/110/22 98/108/94
f 24/109/29 99/112/95 98/108/94
f 30/111/28 100/114/97 99/112/95
f 36/113/96 101/119/101 100/114/97
f 78/106/79 97/105/93 102/115/98
f 97/105/93 98/108/94 103/117/99
f 99/112/95 104/118/100 103/117/99
f 100/114/97 105/120/102 104/118/100
f 101/119/101 106/126/108 105/120/102
f 84/116/86 102/115/98 107/121/103
f 102/115/98 103/117/99 108/123/105
f 104/118/100 109/125/107 108/123/105
f 104/118/100 105/120/102 110/124/106
f 106/126/108 111/132/113 110/124/106
f 107/121/103 112/128/109 96/127/92
f 108/123/105 113/129/110 112/128/109
f 109/125/107 114/131/112 113/129/110
f 109/125/107 110/124/106 115/130/111
f 111/132/113 116/214/131 115/130/111
f 112/128/109 48/134/50 47/133/44
f 113/129/110 54/136/56 48/134/50
f 113/129/110 114/131/112 60/135/63
f 114/131/112 115/130/111 66/137/114
f 115/130/111 116/214/131 72/138/69
f 36/139/96 35/142/34 117/140/115
f 35/142/34 34/144/117 118/143/116
f 34/144/117 33/147/32 119/145/118
f 32/146/31 120/149/119 119/145/118
f 31/148/30 121/155/124 120/149/119
f 101/141/101 117/140/115 122/150/120
f 117/140/115 118/143/116 123/152/121
f 118/143/116 119/145/118 124/153/122
f 119/145/118 120/149/119 125/154/123
f 121/155/124 126/160/128 125/154/123
f 106/151/108 122/150/120 127/156/125
f 123/152/121 128/159/127 127/156/125
f 123/152/121 124/153/122 129/158/126
f 125/154/123 130/161/129 129/158/126
f 126/160/128 131/215/145 130/161/129
f 111/157/113 127/156/125 132/162/130
f 128/159/127 133/165/133 132/162/130
f 128/159/127 129/158/126 134/164/132
f 129/158/126 130/161/129 135/166/134
f 130/161/129 131/215/145 136/167/135
f 132/162/130 71/169/67 72/168/69
f 133/165/133 70/170/68 71/169/67
f 134/164/132 69/172/66 70/170/68
f 134/164/132 135/166/134 67/171/65
f 135/166/134 136/167/135 68/173/64
f 31/174/30 25/177/23 137/175/136
f 25/177/23 19/179/17 138/178/137
f 19/179/17 13/182/18 139/180/138
f 2/181/11 140/184/139 139/180/138
f 1/183/1 74/189/71 140/184/139
f 121/176/124 137/175/136 141/185/140
f 137/175/136 138/178/137 142/187/141
f 139/180/138 143/188/142 142/187/141
f 140/184/139 144/190/143 143/188/142
f 74/189/71 80/196/76 144/190/143
f 126/186/128 141/185/140 145/191/144
f 141/185/140 142/187/141 146/193/146
f 143/188/142 147/195/148 146/193/146
f 143/188/142 144/190/143 148/194/147
f 80/196/76 86/216/81 148/194/147
f 145/191/144 149/198/149 136/197/135
f 146/193/146 150/199/150 149/198/149
f 147/195/148 151/201/152 150/199/150
f 147/195/148 148/194/147 152/200/151
f 148/194/147 86/216/81 92/202/87
f 149/198/149 62/204/58 68/203/64
f 150/199/150 56/206/52 62/204/58
f 150/199/150 151/201/152 50/205/47
f 151/201/152 152/200/151 40/207/37
f 152/200/151 92/202/87 37/208/35
