# Blender v2.93.1 OBJ File: 'rock3.blend'
# www.blender.org
mtllib rock3.mtl
o rock3
v -0.673211 -0.662081 0.673042
v -0.751067 -0.788020 0.485957
v -0.518866 -0.871074 0.518163
v -0.466759 -0.749298 0.729198
v -0.200621 -0.928755 0.575561
v -0.183532 -0.770097 0.800983
v 0.184322 -1.001037 0.609598
v 0.134014 -0.747795 0.808181
v 0.566330 -0.948350 0.586574
v 0.455767 -0.770019 0.810005
v 0.754086 -0.723941 0.445475
v 0.640944 -0.626403 0.670196
v -0.865793 -0.889716 0.211905
v -0.569587 -0.958451 0.200355
v -0.209562 -1.083430 0.208483
v 0.226215 -1.073371 0.207087
v 0.591256 -0.995933 0.201659
v 0.779771 -0.796268 0.162297
v -0.889609 -0.921190 -0.133760
v -0.636306 -1.080630 -0.188361
v -0.218495 -1.117387 -0.237896
v 0.227293 -1.102306 -0.227609
v 0.619276 -1.038303 -0.198115
v 0.836953 -0.850847 -0.173977
v -0.756600 -0.785936 -0.429049
v -0.534950 -0.918510 -0.534536
v -0.216034 -1.104560 -0.634756
v 0.188210 -0.995209 -0.576417
v 0.531746 -0.918885 -0.531746
v 0.949256 -0.954511 -0.580784
v -0.675573 -0.708386 -0.646259
v -0.455182 -0.816735 -0.763081
v -0.170946 -0.884920 -0.810917
v 0.157447 -0.894880 -0.801209
v 0.509825 -0.891073 -0.844609
v 0.837100 -0.840330 -0.837102
v -0.790932 0.700112 0.789195
v -0.510899 0.732649 0.808948
v -0.614392 0.945405 0.614523
v -0.962264 0.902223 0.613850
v -0.219696 0.817739 0.883557
v -0.239782 0.997314 0.663934
v 0.107178 0.901415 0.916569
v 0.154810 1.061918 0.704127
v 0.452715 0.906051 0.912604
v 0.528372 0.983581 0.626751
v 0.776226 0.881607 0.913874
v 0.747054 0.842830 0.557772
v -0.745288 1.103966 0.287967
v -0.984303 0.854869 0.245519
v -0.310169 1.180289 0.309084
v 0.156771 1.126851 0.313486
v 0.500396 0.956902 0.247914
v 0.712215 0.786838 0.226354
v -0.673604 0.970701 -0.150963
v -0.915394 0.804156 -0.110242
v -0.308858 1.113258 -0.154137
v 0.128510 1.070131 -0.128963
v 0.512645 0.977259 -0.141178
v 0.729747 0.795223 -0.092074
v -0.586627 0.858737 -0.486097
v -0.834000 0.720732 -0.396562
v -0.248247 0.930541 -0.491649
v 0.140662 0.940117 -0.516781
v 0.471125 0.849796 -0.471198
v 0.664499 0.726032 -0.373034
v -0.526184 0.689566 -0.696890
v -0.742671 0.624315 -0.602446
v -0.227501 0.722446 -0.712059
v 0.091307 0.738962 -0.725904
v 0.421375 0.781691 -0.757750
v 0.597157 0.621160 -0.597158
v -0.558477 -0.548369 0.902225
v -0.790332 -0.466132 0.789849
v -0.214138 -0.550189 0.978823
v 0.176185 -0.545349 1.026285
v 0.479960 -0.476536 0.885161
v 0.698625 -0.408414 0.767700
v -0.607706 -0.226764 1.012952
v -0.896349 -0.173915 0.895992
v -0.268212 -0.200121 1.220838
v 0.211464 -0.166598 1.302525
v 0.543790 -0.141446 0.993738
v 0.779712 -0.127309 0.811112
v -0.695320 0.198332 1.147411
v -0.996313 0.194409 0.994764
v -0.250980 0.244778 1.154938
v 0.186522 0.282371 1.188277
v 0.616545 0.269604 1.128302
v 0.837742 0.216122 0.919074
v -0.592958 0.509465 0.974104
v -0.906064 0.500731 0.904016
v -0.243906 0.597685 1.035647
v 0.144968 0.657200 1.073654
v 0.526230 0.635418 1.035349
v 0.829754 0.570549 0.959545
v 0.830611 -0.469386 0.514251
v 0.981171 -0.581000 0.188930
v 1.034297 -0.610746 -0.218418
v 0.951834 -0.585468 -0.593677
v 0.747929 -0.473230 -0.747962
v 0.917220 -0.168196 0.582173
v 1.151422 -0.232955 0.265546
v 1.061682 -0.216552 -0.206341
v 0.935041 -0.198395 -0.577689
v 0.783764 -0.172606 -0.783826
v 1.028759 0.228876 0.699001
v 1.013562 0.235734 0.265118
v 1.018013 0.240018 -0.175595
v 0.898699 0.187789 -0.527486
v 0.765169 0.148248 -0.765196
v 0.923862 0.620205 0.674393
v 0.902421 0.596783 0.276635
v 0.884432 0.585362 -0.111862
v 0.795498 0.519106 -0.441034
v 0.694053 0.422910 -0.694053
v 0.609413 -0.642921 -0.980043
v 0.220957 -0.753056 -1.084831
v -0.189291 -0.655003 -0.983452
v -0.510798 -0.575259 -0.844989
v -0.765270 -0.501494 -0.713513
v 0.608526 -0.249062 -1.000781
v 0.234351 -0.353214 -1.181371
v -0.228766 -0.279230 -1.013823
v -0.599718 -0.240489 -0.931730
v -0.832876 -0.217919 -0.772616
v 0.589673 0.166643 -1.010709
v 0.193914 0.145924 -1.157248
v -0.281336 0.163538 -1.084302
v -0.614145 0.145875 -0.904406
v -0.848787 0.106012 -0.776822
v 0.478524 0.519350 -0.872360
v 0.108564 0.503533 -0.904072
v -0.280051 0.515543 -0.882416
v -0.598359 0.460889 -0.788521
v -0.811662 0.394264 -0.679541
v -0.970662 -0.612140 -0.544093
v -0.997408 -0.646878 -0.171752
v -0.992586 -0.628838 0.220807
v -0.943895 -0.567127 0.577344
v -1.009304 -0.237459 -0.550963
v -1.174212 -0.272557 -0.186916
v -1.151037 -0.247835 0.252217
v -1.169790 -0.221203 0.714194
v -1.054109 0.153852 -0.559755
v -1.358370 0.210674 -0.219997
v -1.147155 0.191183 0.249326
v -1.004083 0.193343 0.614048
v -0.961319 0.502528 -0.483932
v -1.120506 0.574683 -0.161666
v -1.027964 0.538055 0.235462
v -0.952627 0.518161 0.581897
vt 0.648149 0.043270
vt 0.614912 0.081925
vt 0.607999 0.040140
vt 0.559063 0.075633
vt 0.556545 0.029048
vt 0.497900 0.025000
vt 0.493765 0.078361
vt 0.438260 0.036165
vt 0.431944 0.085616
vt 0.391086 0.050859
vt 0.657265 0.083234
vt 0.624369 0.137641
vt 0.561667 0.141694
vt 0.490441 0.145136
vt 0.428362 0.148133
vt 0.380449 0.098023
vt 0.680817 0.196218
vt 0.675500 0.134705
vt 0.565520 0.215135
vt 0.492825 0.216512
vt 0.427890 0.214012
vt 0.381492 0.151352
vt 0.671179 0.258057
vt 0.632384 0.205250
vt 0.625672 0.270246
vt 0.499090 0.277034
vt 0.440257 0.271696
vt 0.382571 0.211247
vt 0.661188 0.299322
vt 0.616578 0.314162
vt 0.566112 0.277507
vt 0.563480 0.321767
vt 0.446269 0.324504
vt 0.391167 0.326613
vt 0.371424 0.280573
vt 0.053119 0.688160
vt 0.090716 0.732303
vt 0.032607 0.737841
vt 0.100990 0.681785
vt 0.154597 0.723861
vt 0.212742 0.679087
vt 0.154194 0.676654
vt 0.271168 0.683814
vt 0.220235 0.722671
vt 0.324732 0.682081
vt 0.282840 0.733180
vt 0.078500 0.791541
vt 0.025000 0.799367
vt 0.147001 0.788662
vt 0.220959 0.786658
vt 0.325935 0.742495
vt 0.283361 0.797213
vt 0.033202 0.863833
vt 0.146359 0.863173
vt 0.082797 0.865851
vt 0.217868 0.859738
vt 0.329155 0.858415
vt 0.282020 0.862362
vt 0.045156 0.916286
vt 0.095007 0.924201
vt 0.153939 0.924562
vt 0.278439 0.922363
vt 0.220238 0.926584
vt 0.319748 0.910403
vt 0.056758 0.956779
vt 0.098136 0.970105
vt 0.212456 0.974189
vt 0.153601 0.975000
vt 0.270002 0.971880
vt 0.315708 0.953904
vt 0.053861 0.383547
vt 0.087000 0.415158
vt 0.042720 0.426266
vt 0.091807 0.368334
vt 0.146134 0.409354
vt 0.206830 0.361886
vt 0.145925 0.362124
vt 0.264615 0.360354
vt 0.213970 0.409451
vt 0.309618 0.374970
vt 0.272341 0.410466
vt 0.083846 0.472580
vt 0.031751 0.482051
vt 0.144768 0.479195
vt 0.284950 0.470575
vt 0.217777 0.481486
vt 0.316182 0.416023
vt 0.079560 0.546825
vt 0.025000 0.550929
vt 0.149932 0.551276
vt 0.222002 0.550408
vt 0.338328 0.529430
vt 0.290414 0.541803
vt 0.040486 0.606844
vt 0.094747 0.605308
vt 0.155077 0.612229
vt 0.283196 0.604178
vt 0.220090 0.613516
vt 0.334429 0.590346
vt 0.058404 0.647050
vt 0.106677 0.652662
vt 0.160352 0.656782
vt 0.276581 0.654892
vt 0.218196 0.661723
vt 0.330126 0.644042
vt 0.613877 0.700793
vt 0.580020 0.735995
vt 0.573338 0.687024
vt 0.625371 0.746053
vt 0.590294 0.797977
vt 0.640317 0.855511
vt 0.638497 0.795688
vt 0.649660 0.924736
vt 0.590645 0.865832
vt 0.633694 0.971182
vt 0.588656 0.928079
vt 0.525469 0.729867
vt 0.520850 0.684643
vt 0.529976 0.791046
vt 0.526432 0.866816
vt 0.569266 0.970446
vt 0.523025 0.930848
vt 0.456704 0.723647
vt 0.457189 0.676654
vt 0.453445 0.792903
vt 0.457294 0.926857
vt 0.451386 0.865550
vt 0.461658 0.972809
vt 0.396266 0.677082
vt 0.391534 0.726864
vt 0.390411 0.858662
vt 0.390818 0.793492
vt 0.397751 0.916826
vt 0.409977 0.964395
vt 0.344117 0.684428
vt 0.344435 0.744570
vt 0.345740 0.802511
vt 0.355029 0.910517
vt 0.346710 0.858310
vt 0.369470 0.952730
vt 0.637727 0.371764
vt 0.597238 0.410768
vt 0.575525 0.365798
vt 0.641964 0.422663
vt 0.610135 0.475013
vt 0.658677 0.483752
vt 0.603391 0.543157
vt 0.640430 0.593536
vt 0.651408 0.543263
vt 0.628450 0.638509
vt 0.596367 0.601699
vt 0.532158 0.406588
vt 0.520732 0.360354
vt 0.548759 0.473291
vt 0.541294 0.552683
vt 0.588822 0.651159
vt 0.536193 0.613562
vt 0.464835 0.412486
vt 0.461017 0.363391
vt 0.472016 0.478978
vt 0.468239 0.554681
vt 0.534426 0.660200
vt 0.469645 0.614862
vt 0.408952 0.375247
vt 0.401736 0.425788
vt 0.402026 0.490129
vt 0.402615 0.557259
vt 0.419628 0.655437
vt 0.411835 0.613822
vt 0.368612 0.384514
vt 0.353307 0.432244
vt 0.357594 0.552227
vt 0.353260 0.492933
vt 0.368989 0.604913
vt 0.377028 0.646499
vt 0.330266 0.295556
vt 0.290750 0.262944
vt 0.336283 0.254324
vt 0.289809 0.309976
vt 0.231852 0.278281
vt 0.230951 0.327420
vt 0.165394 0.282484
vt 0.114334 0.328015
vt 0.169815 0.330492
vt 0.073389 0.317832
vt 0.103706 0.278640
vt 0.293891 0.202586
vt 0.341562 0.199319
vt 0.227615 0.211976
vt 0.156018 0.214504
vt 0.055456 0.276872
vt 0.084884 0.213535
vt 0.339364 0.137807
vt 0.290542 0.135865
vt 0.149039 0.142357
vt 0.223980 0.135984
vt 0.086456 0.144551
vt 0.037920 0.218254
vt 0.320297 0.083162
vt 0.275911 0.074401
vt 0.214291 0.073485
vt 0.087862 0.089444
vt 0.146582 0.080964
vt 0.034915 0.097870
vt 0.305789 0.040819
vt 0.263716 0.030880
vt 0.206432 0.025000
vt 0.142582 0.028722
vt 0.042376 0.059238
vt 0.080529 0.025848
vt 0.505072 0.317912
vt 0.329186 0.801241
vt 0.334133 0.464651
vt 0.518220 0.973045
vt 0.474213 0.659660
vt 0.025000 0.153195
vn -0.4431 -0.6442 0.6234
vn -0.3087 -0.8207 0.4808
vn -0.3293 -0.7101 0.6224
vn -0.1454 -0.8813 0.4496
vn -0.0884 -0.7537 0.6513
vn -0.0077 -0.7040 0.7102
vn -0.0158 -0.8641 0.5030
vn 0.3636 -0.5291 0.7667
vn 0.4693 -0.7296 0.4975
vn 0.7123 -0.3324 0.6181
vn -0.5217 -0.6455 0.5578
vn -0.2815 -0.9119 0.2985
vn -0.1821 -0.9439 0.2754
vn 0.0444 -0.9822 0.1826
vn 0.5024 -0.8542 0.1338
vn 0.8185 -0.4337 0.3769
vn -0.5763 -0.7805 -0.2422
vn -0.6365 -0.7048 0.3133
vn -0.1028 -0.9945 -0.0198
vn 0.1122 -0.9924 -0.0503
vn 0.4672 -0.8730 -0.1403
vn 0.8020 -0.5745 0.1633
vn -0.5714 -0.6509 -0.4998
vn -0.3285 -0.9322 -0.1519
vn -0.4647 -0.7330 -0.4968
vn 0.1924 -0.9012 -0.3884
vn 0.2508 -0.9136 -0.3199
vn 0.7347 -0.6739 0.0779
vn -0.6565 -0.5100 -0.5557
vn -0.5122 -0.5887 -0.6253
vn -0.1017 -0.8783 -0.4671
vn -0.1488 -0.7472 -0.6477
vn 0.0114 -0.6591 -0.7520
vn 0.4367 -0.4234 -0.7938
vn 0.6898 -0.7036 -0.1708
vn -0.5345 0.4586 0.7099
vn -0.2159 0.8169 0.5349
vn -0.7471 0.5638 0.3521
vn -0.2409 0.5847 0.7747
vn -0.2487 0.7589 0.6018
vn -0.0785 0.6790 0.7299
vn -0.2665 0.6243 0.7343
vn 0.1290 0.7304 0.6708
vn -0.0548 0.8721 0.4862
vn 0.5110 0.6416 0.5721
vn 0.2166 0.9438 0.2497
vn -0.3108 0.9493 -0.0471
vn -0.7207 0.6927 0.0284
vn -0.1104 0.9840 0.1396
vn 0.1533 0.9836 0.0948
vn 0.6567 0.7436 0.1257
vn 0.4585 0.8887 -0.0048
vn -0.6967 0.6835 -0.2178
vn -0.0675 0.9416 -0.3300
vn -0.4475 0.8302 -0.3323
vn 0.2185 0.9389 -0.2659
vn 0.6974 0.6970 -0.1672
vn 0.4937 0.8489 -0.1888
vn -0.6069 0.5977 -0.5239
vn -0.4166 0.7616 -0.4964
vn -0.1173 0.8231 -0.5556
vn 0.4566 0.7820 -0.4243
vn 0.1395 0.8214 -0.5530
vn 0.6718 0.6477 -0.3594
vn -0.5597 0.5041 -0.6577
vn -0.3950 0.6336 -0.6652
vn 0.0635 0.6106 -0.7894
vn -0.1445 0.6863 -0.7128
vn 0.4325 0.6357 -0.6394
vn 0.6503 0.6310 -0.4231
vn -0.3551 -0.5460 0.7588
vn -0.4781 -0.5820 0.6578
vn -0.1260 -0.5701 0.8119
vn 0.0852 -0.6380 0.7653
vn 0.4296 -0.4950 0.7553
vn -0.4025 -0.3760 0.8346
vn -0.5371 -0.2642 0.8011
vn -0.2475 -0.2955 0.9227
vn 0.5814 -0.2692 0.7678
vn 0.2463 -0.2227 0.9433
vn 0.6960 -0.3367 0.6342
vn -0.3772 0.0501 0.9248
vn -0.6888 0.1709 0.7045
vn -0.2174 0.1665 0.9618
vn 0.1386 0.2653 0.9542
vn 0.7378 -0.0962 0.6681
vn 0.5577 0.1383 0.8184
vn -0.7807 0.3198 0.5369
vn -0.2468 0.5277 0.8128
vn -0.1571 0.5151 0.8426
vn 0.3249 0.4282 0.8433
vn -0.0027 0.4451 0.8955
vn 0.7107 0.2516 0.6570
vn 0.8276 -0.3583 0.4321
vn 0.8463 -0.4625 0.2644
vn 0.8746 -0.4657 0.1347
vn 0.9381 -0.1661 -0.3038
vn 0.7801 -0.3325 0.5299
vn 0.6899 -0.3316 0.6435
vn 0.9224 -0.2490 0.2952
vn 0.9885 -0.0350 -0.1472
vn 0.6831 0.0324 -0.7296
vn 0.8690 0.0675 -0.4902
vn 0.8711 -0.1287 0.4739
vn 0.9856 0.1251 0.1137
vn 0.8586 0.2614 -0.4410
vn 0.9390 0.2736 -0.2085
vn 0.7885 0.2382 -0.5670
vn 0.9322 0.2715 0.2394
vn 0.8423 0.5072 -0.1823
vn 0.8803 0.4728 -0.0382
vn 0.7679 0.4863 -0.4169
vn 0.7252 0.4669 -0.5060
vn 0.6726 0.7388 -0.0429
vn 0.3056 -0.1216 -0.9444
vn -0.0354 -0.4437 -0.8955
vn 0.1069 -0.7488 -0.6542
vn -0.2672 -0.4939 -0.8275
vn -0.4520 -0.3651 -0.8139
vn 0.6283 -0.0337 -0.7772
vn 0.7868 0.0343 -0.6162
vn 0.0236 -0.0667 -0.9975
vn -0.3190 -0.1244 -0.9395
vn -0.5972 -0.3776 -0.7076
vn -0.4374 -0.1526 -0.8862
vn 0.5968 0.2227 -0.7709
vn 0.0779 0.2730 -0.9589
vn -0.2966 0.2238 -0.9284
vn -0.6032 -0.1635 -0.7806
vn -0.4505 0.1634 -0.8777
vn 0.4788 0.4651 -0.7446
vn 0.0566 0.5075 -0.8598
vn -0.2268 0.5744 -0.7865
vn -0.5682 0.3774 -0.7312
vn -0.4466 0.4733 -0.7593
vn -0.7249 -0.4571 -0.5154
vn -0.8789 -0.4589 -0.1300
vn -0.8949 -0.3981 0.2017
vn -0.6868 -0.5254 0.5023
vn -0.8454 -0.1469 -0.5136
vn -0.9612 -0.2560 -0.1031
vn -0.9532 -0.2955 0.0635
vn -0.8768 -0.1675 0.4507
vn -0.6366 0.1610 -0.7542
vn -0.7770 0.1242 -0.6172
vn -0.9723 0.1176 0.2022
vn -0.9779 0.0953 -0.1862
vn -0.9280 0.2392 0.2856
vn -0.6580 0.4113 -0.6308
vn -0.8171 0.5583 -0.1438
vn -0.9724 0.1437 0.1837
vn -0.8704 0.3902 0.3003
usemtl Standardmaterial
s 1
f 1/1/1 3/2/2 4/3/3
f 4/3/3 5/4/4 6/5/5
f 5/4/4 8/6/6 6/5/5
f 7/7/7 10/8/8 8/6/6
f 9/9/9 12/10/10 10/8/8
f 2/11/11 14/12/12 3/2/2
f 3/2/2 15/13/13 5/4/4
f 15/13/13 7/7/7 5/4/4
f 16/14/14 9/9/9 7/7/7
f 17/15/15 11/16/16 9/9/9
f 19/17/17 14/12/12 13/18/18
f 14/12/12 21/19/19 15/13/13
f 15/13/13 22/20/20 16/14/14
f 16/14/14 23/21/21 17/15/15
f 23/21/21 18/22/22 17/15/15
f 25/23/23 20/24/24 19/17/17
f 26/25/25 21/19/19 20/24/24
f 21/19/19 28/26/26 22/20/20
f 22/20/20 29/27/27 23/21/21
f 29/27/27 24/28/28 23/21/21
f 31/29/29 26/25/25 25/23/23
f 32/30/30 27/31/31 26/25/25
f 33/32/32 28/26/26 27/31/31
f 28/26/26 35/33/33 29/27/27
f 29/27/27 36/34/34 30/35/35
f 37/36/36 39/37/37 40/38/38
f 38/39/39 42/40/40 39/37/37
f 43/41/41 42/40/40 41/42/42
f 45/43/43 44/44/44 43/41/41
f 47/45/45 46/46/46 45/43/43
f 40/38/38 49/47/47 50/48/48
f 39/37/37 51/49/49 49/47/47
f 42/40/40 52/50/50 51/49/49
f 46/46/46 52/50/50 44/44/44
f 48/51/51 53/52/52 46/46/46
f 49/47/47 56/53/53 50/48/48
f 49/47/47 57/54/54 55/55/55
f 51/49/49 58/56/56 57/54/54
f 53/52/52 58/56/56 52/50/50
f 53/52/52 60/57/57 59/58/58
f 55/55/55 62/59/59 56/53/53
f 57/54/54 61/60/60 55/55/55
f 58/56/56 63/61/61 57/54/54
f 58/56/56 65/62/62 64/63/63
f 59/58/58 66/64/64 65/62/62
f 61/60/60 68/65/65 62/59/59
f 63/61/61 67/66/66 61/60/60
f 63/61/61 70/67/67 69/68/68
f 64/63/63 71/69/69 70/67/67
f 65/62/62 72/70/70 71/69/69
f 1/71/1 73/72/71 74/73/72
f 4/74/3 75/75/73 73/72/71
f 8/76/6 75/75/73 6/77/5
f 10/78/8 76/79/74 8/76/6
f 12/80/10 77/81/75 10/78/8
f 74/73/72 79/82/76 80/83/77
f 75/75/73 79/82/76 73/72/71
f 76/79/74 81/84/78 75/75/73
f 76/79/74 83/85/79 82/86/80
f 78/87/81 83/85/79 77/81/75
f 80/83/77 85/88/82 86/89/83
f 81/84/78 85/88/82 79/82/76
f 82/86/80 87/90/84 81/84/78
f 83/85/79 88/91/85 82/86/80
f 83/85/79 90/92/86 89/93/87
f 85/88/82 92/94/88 86/89/83
f 87/90/84 91/95/89 85/88/82
f 88/91/85 93/96/90 87/90/84
f 88/91/85 95/97/91 94/98/92
f 89/93/87 96/99/93 95/97/91
f 91/95/89 37/100/36 92/94/88
f 93/96/90 38/101/39 91/95/89
f 94/98/92 41/102/42 93/96/90
f 94/98/92 45/103/43 43/104/41
f 95/97/91 47/105/45 45/103/43
f 12/106/10 97/107/94 78/108/81
f 11/109/16 98/110/95 97/107/94
f 24/111/28 98/110/95 18/112/22
f 30/113/35 99/114/96 24/111/28
f 36/115/34 100/116/97 30/113/35
f 78/108/81 102/117/98 84/118/99
f 97/107/94 103/119/100 102/117/98
f 98/110/95 104/120/101 103/119/100
f 100/116/97 104/120/101 99/114/96
f 101/121/102 105/122/103 100/116/97
f 84/118/99 107/123/104 90/124/86
f 102/117/98 108/125/105 107/123/104
f 104/120/101 108/125/105 103/119/100
f 104/120/101 110/126/106 109/127/107
f 105/122/103 111/128/108 110/126/106
f 107/123/104 96/129/93 90/124/86
f 108/125/105 112/130/109 107/123/104
f 108/125/105 114/131/110 113/132/111
f 109/127/107 115/133/112 114/131/110
f 110/126/106 116/134/113 115/133/112
f 112/130/109 47/135/45 96/129/93
f 113/132/111 48/136/51 112/130/109
f 114/131/110 54/137/114 113/132/111
f 114/131/110 66/138/64 60/139/57
f 115/133/112 72/140/70 66/138/64
f 36/141/34 117/142/115 101/143/102
f 35/144/33 118/145/116 117/142/115
f 34/146/117 119/147/118 118/145/116
f 32/148/30 119/147/118 33/149/32
f 31/150/29 120/151/119 32/148/30
f 101/143/102 122/152/120 106/153/121
f 117/142/115 123/154/122 122/152/120
f 119/147/118 123/154/122 118/145/116
f 120/151/119 124/155/123 119/147/118
f 121/156/124 125/157/125 120/151/119
f 106/153/121 127/158/126 111/159/108
f 122/152/120 128/160/127 127/158/126
f 124/155/123 128/160/127 123/154/122
f 125/157/125 129/161/128 124/155/123
f 126/162/129 130/163/130 125/157/125
f 127/158/126 116/164/113 111/159/108
f 128/160/127 132/165/131 127/158/126
f 129/161/128 133/166/132 128/160/127
f 130/163/130 134/167/133 129/161/128
f 130/163/130 136/168/134 135/169/135
f 132/165/131 72/170/70 116/164/113
f 133/166/132 71/171/69 132/165/131
f 133/166/132 69/172/68 70/173/67
f 134/167/133 67/174/66 69/172/68
f 135/169/135 68/175/65 67/174/66
f 31/176/29 137/177/136 121/178/124
f 25/179/23 138/180/137 137/177/136
f 19/181/17 139/182/138 138/180/137
f 2/183/11 139/182/138 13/184/18
f 1/185/1 140/186/139 2/183/11
f 121/178/124 141/187/140 126/188/129
f 137/177/136 142/189/141 141/187/140
f 139/182/138 142/189/141 138/180/137
f 140/186/139 143/190/142 139/182/138
f 74/191/72 144/192/143 140/186/139
f 141/187/140 131/193/144 126/188/129
f 142/189/141 145/194/145 141/187/140
f 142/189/141 147/195/146 146/196/147
f 143/190/142 148/197/148 147/195/146
f 80/198/77 148/197/148 144/192/143
f 145/194/145 136/199/134 131/193/144
f 146/196/147 149/200/149 145/194/145
f 147/195/146 150/201/150 146/196/147
f 147/195/146 152/202/151 151/203/152
f 148/197/148 92/204/88 152/202/151
f 149/200/149 68/205/65 136/199/134
f 150/201/150 62/206/59 149/200/149
f 151/203/152 56/207/53 150/201/150
f 152/202/151 50/208/48 151/203/152
f 152/202/151 37/209/36 40/210/38
f 1/1/1 2/11/11 3/2/2
f 4/3/3 3/2/2 5/4/4
f 5/4/4 7/7/7 8/6/6
f 7/7/7 9/9/9 10/8/8
f 9/9/9 11/16/16 12/10/10
f 2/11/11 13/18/18 14/12/12
f 3/2/2 14/12/12 15/13/13
f 15/13/13 16/14/14 7/7/7
f 16/14/14 17/15/15 9/9/9
f 17/15/15 18/22/22 11/16/16
f 19/17/17 20/24/24 14/12/12
f 14/12/12 20/24/24 21/19/19
f 15/13/13 21/19/19 22/20/20
f 16/14/14 22/20/20 23/21/21
f 23/21/21 24/28/28 18/22/22
f 25/23/23 26/25/25 20/24/24
f 26/25/25 27/31/31 21/19/19
f 21/19/19 27/31/31 28/26/26
f 22/20/20 28/26/26 29/27/27
f 29/27/27 30/35/35 24/28/28
f 31/29/29 32/30/30 26/25/25
f 32/30/30 33/32/32 27/31/31
f 33/32/32 34/211/117 28/26/26
f 28/26/26 34/211/117 35/33/33
f 29/27/27 35/33/33 36/34/34
f 37/36/36 38/39/39 39/37/37
f 38/39/39 41/42/42 42/40/40
f 43/41/41 44/44/44 42/40/40
f 45/43/43 46/46/46 44/44/44
f 47/45/45 48/51/51 46/46/46
f 40/38/38 39/37/37 49/47/47
f 39/37/37 42/40/40 51/49/49
f 42/40/40 44/44/44 52/50/50
f 46/46/46 53/52/52 52/50/50
f 48/51/51 54/212/114 53/52/52
f 49/47/47 55/55/55 56/53/53
f 49/47/47 51/49/49 57/54/54
f 51/49/49 52/50/50 58/56/56
f 53/52/52 59/58/58 58/56/56
f 53/52/52 54/212/114 60/57/57
f 55/55/55 61/60/60 62/59/59
f 57/54/54 63/61/61 61/60/60
f 58/56/56 64/63/63 63/61/61
f 58/56/56 59/58/58 65/62/62
f 59/58/58 60/57/57 66/64/64
f 61/60/60 67/66/66 68/65/65
f 63/61/61 69/68/68 67/66/66
f 63/61/61 64/63/63 70/67/67
f 64/63/63 65/62/62 71/69/69
f 65/62/62 66/64/64 72/70/70
f 1/71/1 4/74/3 73/72/71
f 4/74/3 6/77/5 75/75/73
f 8/76/6 76/79/74 75/75/73
f 10/78/8 77/81/75 76/79/74
f 12/80/10 78/87/81 77/81/75
f 74/73/72 73/72/71 79/82/76
f 75/75/73 81/84/78 79/82/76
f 76/79/74 82/86/80 81/84/78
f 76/79/74 77/81/75 83/85/79
f 78/87/81 84/213/99 83/85/79
f 80/83/77 79/82/76 85/88/82
f 81/84/78 87/90/84 85/88/82
f 82/86/80 88/91/85 87/90/84
f 83/85/79 89/93/87 88/91/85
f 83/85/79 84/213/99 90/92/86
f 85/88/82 91/95/89 92/94/88
f 87/90/84 93/96/90 91/95/89
f 88/91/85 94/98/92 93/96/90
f 88/91/85 89/93/87 95/97/91
f 89/93/87 90/92/86 96/99/93
f 91/95/89 38/101/39 37/100/36
f 93/96/90 41/102/42 38/101/39
f 94/98/92 43/104/41 41/102/42
f 94/98/92 95/97/91 45/103/43
f 95/97/91 96/99/93 47/105/45
f 12/106/10 11/109/16 97/107/94
f 11/109/16 18/112/22 98/110/95
f 24/111/28 99/114/96 98/110/95
f 30/113/35 100/116/97 99/114/96
f 36/115/34 101/121/102 100/116/97
f 78/108/81 97/107/94 102/117/98
f 97/107/94 98/110/95 103/119/100
f 98/110/95 99/114/96 104/120/101
f 100/116/97 105/122/103 104/120/101
f 101/121/102 106/214/121 105/122/103
f 84/118/99 102/117/98 107/123/104
f 102/117/98 103/119/100 108/125/105
f 104/120/101 109/127/107 108/125/105
f 104/120/101 105/122/103 110/126/106
f 105/122/103 106/214/121 111/128/108
f 107/123/104 112/130/109 96/129/93
f 108/125/105 113/132/111 112/130/109
f 108/125/105 109/127/107 114/131/110
f 109/127/107 110/126/106 115/133/112
f 110/126/106 111/128/108 116/134/113
f 112/130/109 48/136/51 47/135/45
f 113/132/111 54/137/114 48/136/51
f 114/131/110 60/139/57 54/137/114
f 114/131/110 115/133/112 66/138/64
f 115/133/112 116/134/113 72/140/70
f 36/141/34 35/144/33 117/142/115
f 35/144/33 34/146/117 118/145/116
f 34/146/117 33/149/32 119/147/118
f 32/148/30 120/151/119 119/147/118
f 31/150/29 121/156/124 120/151/119
f 101/143/102 117/142/115 122/152/120
f 117/142/115 118/145/116 123/154/122
f 119/147/118 124/155/123 123/154/122
f 120/151/119 125/157/125 124/155/123
f 121/156/124 126/162/129 125/157/125
f 106/153/121 122/152/120 127/158/126
f 122/152/120 123/154/122 128/160/127
f 124/155/123 129/161/128 128/160/127
f 125/157/125 130/163/130 129/161/128
f 126/162/129 131/215/144 130/163/130
f 127/158/126 132/165/131 116/164/113
f 128/160/127 133/166/132 132/165/131
f 129/161/128 134/167/133 133/166/132
f 130/163/130 135/169/135 134/167/133
f 130/163/130 131/215/144 136/168/134
f 132/165/131 71/171/69 72/170/70
f 133/166/132 70/173/67 71/171/69
f 133/166/132 134/167/133 69/172/68
f 134/167/133 135/169/135 67/174/66
f 135/169/135 136/168/134 68/175/65
f 31/176/29 25/179/23 137/177/136
f 25/179/23 19/181/17 138/180/137
f 19/181/17 13/184/18 139/182/138
f 2/183/11 140/186/139 139/182/138
f 1/185/1 74/191/72 140/186/139
f 121/178/124 137/177/136 141/187/140
f 137/177/136 138/180/137 142/189/141
f 139/182/138 143/190/142 142/189/141
f 140/186/139 144/192/143 143/190/142
f 74/191/72 80/198/77 144/192/143
f 141/187/140 145/194/145 131/193/144
f 142/189/141 146/196/147 145/194/145
f 142/189/141 143/190/142 147/195/146
f 143/190/142 144/192/143 148/197/148
f 80/198/77 86/216/83 148/197/148
f 145/194/145 149/200/149 136/199/134
f 146/196/147 150/201/150 149/200/149
f 147/195/146 151/203/152 150/201/150
f 147/195/146 148/197/148 152/202/151
f 148/197/148 86/216/83 92/204/88
f 149/200/149 62/206/59 68/205/65
f 150/201/150 56/207/53 62/206/59
f 151/203/152 50/208/48 56/207/53
f 152/202/151 40/210/38 50/208/48
f 152/202/151 92/204/88 37/209/36
