# Blender v2.93.1 OBJ File: 'rock5.blend'
# www.blender.org
mtllib rock5.mtl
o rock5
v -0.851512 -0.763434 0.852161
v -0.918058 -0.887060 0.598961
v -0.663048 -0.979555 0.663554
v -0.596989 -0.807781 0.919583
v -0.282077 -1.024020 0.702121
v -0.286781 -0.897285 0.929422
v 0.124891 -1.039104 0.682593
v 0.056973 -0.871013 0.941807
v 0.436055 -0.943420 0.634955
v 0.334163 -0.808617 0.887609
v 0.659255 -0.849768 0.570654
v 0.534768 -0.768845 0.818535
v -0.934245 -0.949750 0.277488
v -0.703579 -1.087223 0.278086
v -0.304245 -1.212603 0.304448
v 0.162768 -1.196327 0.268160
v 0.525736 -1.066432 0.258369
v 0.775359 -0.899198 0.239967
v -0.925619 -0.948313 -0.071305
v -0.688633 -1.169572 -0.138605
v -0.268677 -1.253475 -0.169456
v 0.198474 -1.247120 -0.198151
v 0.545767 -1.137946 -0.150201
v 0.776736 -0.936755 -0.110536
v -0.877709 -0.918808 -0.346268
v -0.633544 -1.081520 -0.463340
v -0.260712 -1.215066 -0.523592
v 0.151372 -1.152854 -0.551246
v 0.475775 -1.044659 -0.475401
v 0.680234 -0.876054 -0.381900
v -0.825898 -0.832705 -0.533494
v -0.538184 -0.983948 -0.671916
v -0.224604 -1.033647 -0.731470
v 0.115084 -0.956345 -0.759674
v 0.382042 -0.911006 -0.682172
v 0.582953 -0.822181 -0.582745
v -0.867050 0.645189 0.867127
v -0.662524 0.766808 0.918788
v -0.707658 0.857150 0.707850
v -0.915055 0.687233 0.660980
v -0.351684 0.791937 0.948933
v -0.360729 1.010245 0.742066
v -0.005800 0.812304 0.951423
v 0.040827 1.003409 0.721093
v 0.279846 0.777267 0.886082
v 0.403635 0.893142 0.651411
v 0.553697 0.632068 0.785620
v 0.656523 0.728080 0.533898
v -0.732371 0.934798 0.363972
v -0.954151 0.739459 0.357085
v -0.402357 1.139837 0.402904
v 0.062203 1.125329 0.330972
v 0.486369 0.965082 0.276174
v 0.740522 0.806977 0.219814
v -0.711834 0.891544 -0.044909
v -0.956681 0.749993 0.019617
v -0.340074 1.074097 -0.075218
v 0.136737 1.073966 -0.136352
v 0.496267 0.909252 -0.124932
v 0.726267 0.775510 -0.119981
v -0.658677 0.741026 -0.424533
v -0.882995 0.650422 -0.302000
v -0.297501 0.837135 -0.519862
v 0.119453 0.894866 -0.501848
v 0.462621 0.796221 -0.462481
v 0.687440 0.700422 -0.409571
v -0.544153 0.595054 -0.670379
v -0.794014 0.559317 -0.556515
v -0.228605 0.648261 -0.763888
v 0.112820 0.727385 -0.725196
v 0.413127 0.663102 -0.684737
v 0.623514 0.572637 -0.623244
v -0.650476 -0.535925 1.089039
v -0.905671 -0.482430 0.906319
v -0.300862 -0.672503 1.157977
v 0.113975 -0.632319 1.128443
v 0.462367 -0.602010 1.039977
v 0.670080 -0.530299 0.898488
v -0.770005 -0.210513 1.169059
v -1.040507 -0.168267 1.040799
v -0.367515 -0.259718 1.388352
v 0.086730 -0.214096 1.262557
v 0.434344 -0.265677 1.145698
v 0.685557 -0.217079 0.931376
v -0.841796 0.188290 1.209692
v -1.067322 0.170892 1.067641
v -0.437007 0.197819 1.337270
v 0.030813 0.247603 1.264927
v 0.397629 0.146697 1.111271
v 0.632869 0.118232 0.893675
v -0.738624 0.571312 1.070681
v -0.953069 0.465457 0.953394
v -0.372583 0.551542 1.143831
v 0.041375 0.587759 1.124585
v 0.380547 0.508170 1.025818
v 0.612007 0.409507 0.872092
v 0.758482 -0.639154 0.598766
v 0.880211 -0.663915 0.246236
v 0.913629 -0.685251 -0.164563
v 0.802094 -0.604874 -0.502769
v 0.692443 -0.571221 -0.692302
v 0.858130 -0.276044 0.687970
v 0.945681 -0.290233 0.271352
v 1.052098 -0.254269 -0.194234
v 0.908404 -0.239072 -0.571200
v 0.770309 -0.242234 -0.769978
v 0.844745 0.136935 0.642169
v 0.996733 0.173197 0.269541
v 1.068999 0.204599 -0.189920
v 0.935356 0.171684 -0.607404
v 0.803821 0.093438 -0.803543
v 0.798257 0.467829 0.615225
v 0.899786 0.564386 0.288848
v 0.909879 0.549169 -0.116973
v 0.827440 0.508392 -0.483015
v 0.719486 0.374419 -0.719015
v 0.495585 -0.679786 -0.799798
v 0.146080 -0.721427 -0.910433
v -0.281218 -0.772922 -0.890762
v -0.627424 -0.724024 -0.752229
v -0.892309 -0.596795 -0.653778
v 0.565973 -0.325048 -0.904620
v 0.196689 -0.316441 -1.041192
v -0.266855 -0.386830 -0.930435
v -0.681449 -0.377410 -0.871850
v -0.937441 -0.303439 -0.710643
v 0.617459 0.085442 -0.927528
v 0.198468 0.148970 -1.070227
v -0.248625 0.081681 -1.017845
v -0.619828 0.031284 -0.841845
v -0.927028 0.035394 -0.624141
v 0.486237 0.426349 -0.827881
v 0.127483 0.505199 -0.919101
v -0.271102 0.452247 -0.870553
v -0.611986 0.381866 -0.775727
v -0.837526 0.344371 -0.616976
v -1.041474 -0.640447 -0.450845
v -1.142945 -0.697478 -0.119632
v -1.154745 -0.714683 0.303760
v -1.093808 -0.652167 0.648580
v -1.145533 -0.297733 -0.464029
v -1.271633 -0.318412 -0.098631
v -1.388227 -0.331484 0.372848
v -1.169611 -0.287532 0.770826
v -1.134663 0.110750 -0.385912
v -1.246179 0.145648 -0.025522
v -1.329934 0.129287 0.444417
v -1.209353 0.129549 0.842786
v -1.007973 0.459091 -0.394828
v -1.142188 0.527828 -0.014031
v -1.146631 0.508935 0.389886
v -1.068838 0.459152 0.741544
vt 0.045247 0.360666
vt 0.085890 0.400374
vt 0.033051 0.405059
vt 0.075346 0.464791
vt 0.032057 0.461941
vt 0.025000 0.524407
vt 0.076653 0.534041
vt 0.030420 0.577342
vt 0.080120 0.589916
vt 0.041662 0.613822
vt 0.094308 0.353973
vt 0.152914 0.394915
vt 0.146926 0.463356
vt 0.148705 0.539252
vt 0.146472 0.601997
vt 0.087470 0.632014
vt 0.215289 0.348970
vt 0.151542 0.350117
vt 0.222545 0.402721
vt 0.223093 0.471517
vt 0.214136 0.603102
vt 0.207589 0.653285
vt 0.145033 0.652259
vt 0.266865 0.358551
vt 0.278187 0.410413
vt 0.279876 0.475161
vt 0.223945 0.546043
vt 0.270126 0.597932
vt 0.259965 0.643905
vt 0.304368 0.364444
vt 0.318148 0.424123
vt 0.324931 0.481758
vt 0.282665 0.542031
vt 0.313780 0.592297
vt 0.298218 0.631385
vt 0.360347 0.633676
vt 0.394930 0.596798
vt 0.396655 0.642408
vt 0.356164 0.591960
vt 0.393568 0.534363
vt 0.346197 0.472539
vt 0.345201 0.536828
vt 0.359177 0.419954
vt 0.396015 0.468875
vt 0.372214 0.364450
vt 0.406186 0.406491
vt 0.453779 0.602421
vt 0.451337 0.650601
vt 0.448979 0.542075
vt 0.461268 0.470315
vt 0.421818 0.354410
vt 0.471056 0.397984
vt 0.512184 0.652678
vt 0.522222 0.605398
vt 0.524013 0.538203
vt 0.535507 0.462562
vt 0.482124 0.348970
vt 0.538785 0.399555
vt 0.573103 0.646141
vt 0.590779 0.603577
vt 0.604930 0.539835
vt 0.599713 0.468932
vt 0.595306 0.366702
vt 0.598078 0.408798
vt 0.620859 0.634726
vt 0.641200 0.591318
vt 0.645547 0.470715
vt 0.656820 0.533712
vt 0.642042 0.415864
vt 0.638519 0.375166
vt 0.632972 0.045004
vt 0.586365 0.089463
vt 0.583856 0.036038
vt 0.640802 0.090773
vt 0.607934 0.149754
vt 0.655127 0.211173
vt 0.660122 0.147173
vt 0.646308 0.263111
vt 0.604185 0.219394
vt 0.641728 0.300496
vt 0.600965 0.278954
vt 0.528916 0.074173
vt 0.520324 0.025000
vt 0.534456 0.146142
vt 0.531816 0.219172
vt 0.543092 0.276374
vt 0.596897 0.322347
vt 0.461865 0.071115
vt 0.459778 0.027845
vt 0.464758 0.138366
vt 0.456630 0.213981
vt 0.473956 0.278249
vt 0.540257 0.331588
vt 0.403667 0.045771
vt 0.395092 0.089680
vt 0.401360 0.151387
vt 0.411659 0.279371
vt 0.398386 0.220635
vt 0.423471 0.327507
vt 0.368710 0.058918
vt 0.353020 0.098806
vt 0.349948 0.155269
vt 0.358370 0.269997
vt 0.351057 0.217787
vt 0.380335 0.321953
vt 0.692670 0.362290
vt 0.738340 0.396010
vt 0.684373 0.410680
vt 0.741363 0.356398
vt 0.800630 0.396587
vt 0.864487 0.348970
vt 0.802101 0.353581
vt 0.916679 0.357128
vt 0.869230 0.397021
vt 0.956116 0.364400
vt 0.929021 0.409898
vt 0.724104 0.459264
vt 0.674377 0.465028
vt 0.792965 0.458924
vt 0.869219 0.469990
vt 0.966223 0.413727
vt 0.934349 0.473834
vt 0.726997 0.528674
vt 0.671811 0.526653
vt 0.792127 0.535448
vt 0.865674 0.542084
vt 0.975000 0.533275
vt 0.935480 0.541839
vt 0.676315 0.579750
vt 0.730041 0.584936
vt 0.852653 0.601900
vt 0.786045 0.600797
vt 0.915356 0.600587
vt 0.962415 0.586162
vt 0.687438 0.621579
vt 0.735013 0.636721
vt 0.792705 0.649991
vt 0.906594 0.641328
vt 0.853574 0.650162
vt 0.948648 0.625686
vt 0.287296 0.962914
vt 0.264560 0.924030
vt 0.305781 0.915544
vt 0.245174 0.967555
vt 0.203316 0.918595
vt 0.194390 0.964485
vt 0.132661 0.916180
vt 0.079900 0.952006
vt 0.132865 0.967671
vt 0.025384 0.926993
vt 0.072214 0.903925
vt 0.280362 0.863686
vt 0.322635 0.857565
vt 0.218200 0.851177
vt 0.140454 0.853769
vt 0.025587 0.879882
vt 0.073868 0.842137
vt 0.295968 0.797020
vt 0.332290 0.798703
vt 0.155589 0.777471
vt 0.227009 0.778128
vt 0.089329 0.774643
vt 0.025000 0.826024
vt 0.328009 0.745200
vt 0.284987 0.734702
vt 0.224677 0.716066
vt 0.097236 0.714581
vt 0.157434 0.711858
vt 0.050646 0.710397
vt 0.321229 0.704293
vt 0.283938 0.686383
vt 0.167944 0.675266
vt 0.231108 0.668277
vt 0.108729 0.674224
vt 0.060773 0.672009
vt 0.042340 0.299054
vt 0.086082 0.277186
vt 0.085297 0.319907
vt 0.030252 0.263871
vt 0.080284 0.219618
vt 0.025000 0.213321
vt 0.078496 0.149296
vt 0.039604 0.091190
vt 0.025360 0.149282
vt 0.059005 0.044747
vt 0.088914 0.091241
vt 0.145516 0.281313
vt 0.138825 0.333978
vt 0.144996 0.219968
vt 0.148033 0.144990
vt 0.108005 0.033888
vt 0.151528 0.074053
vt 0.203285 0.327709
vt 0.214094 0.274412
vt 0.220930 0.213398
vt 0.218605 0.136882
vt 0.172245 0.025000
vt 0.221477 0.070861
vt 0.262543 0.331214
vt 0.275266 0.282173
vt 0.285163 0.148395
vt 0.284737 0.215153
vt 0.280677 0.087534
vt 0.287792 0.047552
vt 0.301254 0.321349
vt 0.315936 0.274569
vt 0.334956 0.153502
vt 0.332826 0.215204
vt 0.327750 0.097783
vt 0.322315 0.060363
vt 0.330210 0.544622
vt 0.543465 0.355898
vt 0.477223 0.332062
vt 0.974436 0.473118
vt 0.027015 0.762983
vt 0.232656 0.028739
vn -0.4382 -0.5968 0.6722
vn -0.2626 -0.8820 0.3913
vn -0.2580 -0.6262 0.7357
vn -0.0876 -0.8881 0.4513
vn -0.0889 -0.7435 0.6628
vn 0.1643 -0.7582 0.6310
vn 0.1638 -0.8675 0.4697
vn 0.3171 -0.7166 0.6213
vn 0.3520 -0.8115 0.4665
vn 0.4599 -0.6782 0.5732
vn -0.5236 -0.7818 0.3386
vn -0.3389 -0.9270 0.1609
vn -0.1058 -0.9631 0.2474
vn 0.1769 -0.9498 0.2580
vn 0.4217 -0.8684 0.2607
vn 0.5891 -0.6631 0.4618
vn -0.7050 -0.7006 -0.1101
vn -0.6018 -0.7943 0.0837
vn -0.4486 -0.8897 -0.0849
vn -0.1194 -0.9923 -0.0343
vn 0.4876 -0.8690 -0.0842
vn 0.7620 -0.6337 -0.1333
vn 0.7200 -0.6482 0.2478
vn -0.7449 -0.5831 -0.3242
vn -0.4932 -0.7818 -0.3815
vn -0.1283 -0.9029 -0.4103
vn 0.1820 -0.9823 -0.0451
vn 0.5200 -0.6993 -0.4905
vn 0.7012 -0.5495 -0.4544
vn -0.6754 -0.4998 -0.5422
vn -0.4634 -0.6058 -0.6467
vn -0.1226 -0.6755 -0.7271
vn 0.2034 -0.8690 -0.4510
vn 0.4806 -0.5523 -0.6812
vn 0.6388 -0.5078 -0.5780
vn -0.6228 0.6620 0.4171
vn -0.4401 0.8492 0.2918
vn -0.6597 0.6971 0.2808
vn -0.3601 0.7626 0.5373
vn -0.1391 0.8841 0.4461
vn 0.1327 0.6753 0.7255
vn -0.0753 0.7281 0.6813
vn 0.4410 0.6298 0.6394
vn 0.1438 0.8392 0.5245
vn 0.6172 0.5204 0.5901
vn 0.4426 0.7660 0.4663
vn -0.5686 0.8178 0.0892
vn -0.7063 0.6961 0.1286
vn -0.2334 0.9684 0.0877
vn 0.1872 0.9748 0.1215
vn 0.6608 0.5846 0.4708
vn 0.4617 0.8804 0.1082
vn -0.6813 0.7118 -0.1708
vn -0.5464 0.8103 -0.2117
vn -0.2598 0.9214 -0.2890
vn 0.1785 0.9432 -0.2801
vn 0.7037 0.6954 0.1460
vn 0.4380 0.8698 -0.2271
vn -0.6225 0.6247 -0.4714
vn -0.4665 0.7622 -0.4488
vn -0.2353 0.8152 -0.5293
vn 0.1370 0.8313 -0.5388
vn 0.5627 0.7064 -0.4295
vn 0.4011 0.7878 -0.4674
vn -0.5947 0.5268 -0.6073
vn -0.4491 0.6258 -0.6377
vn 0.0895 0.7074 -0.7011
vn -0.2368 0.6722 -0.7015
vn 0.3763 0.6588 -0.6514
vn 0.4741 0.6348 -0.6102
vn -0.3443 -0.4177 0.8408
vn -0.5537 -0.4418 0.7059
vn -0.0903 -0.5289 0.8439
vn 0.1741 -0.5365 0.8257
vn 0.3884 -0.4662 0.7949
vn -0.4604 -0.2890 0.8393
vn -0.6456 -0.2984 0.7029
vn -0.1174 -0.2250 0.9673
vn 0.2435 -0.1479 0.9585
vn 0.4668 -0.0825 0.8805
vn 0.6892 -0.4058 0.6003
vn -0.4486 0.1545 0.8803
vn -0.7041 0.1815 0.6865
vn -0.1179 0.2249 0.9672
vn 0.2818 0.2498 0.9264
vn 0.5290 0.1746 0.8305
vn 0.7819 0.0093 0.6233
vn -0.6569 0.5354 0.5309
vn -0.3830 0.5311 0.7558
vn -0.0851 0.5409 0.8368
vn 0.5349 0.4313 0.7266
vn 0.2206 0.5255 0.8217
vn 0.6969 0.3168 0.6434
vn 0.8515 -0.3555 0.3854
vn 0.9162 -0.3422 0.2086
vn 0.9185 -0.3619 -0.1592
vn 0.7931 -0.4204 -0.4408
vn 0.9343 -0.0411 0.3542
vn 0.9672 -0.1404 0.2117
vn 0.9807 -0.1622 -0.1088
vn 0.6671 -0.4303 -0.6081
vn 0.8678 -0.1950 -0.4571
vn 0.8829 0.1286 0.4515
vn 0.7273 0.1539 0.6688
vn 0.9657 0.0852 0.2455
vn 0.9866 0.1450 -0.0749
vn 0.6720 0.1523 -0.7247
vn 0.8525 0.1981 -0.4838
vn 0.7978 0.3092 0.5177
vn 0.8747 0.4749 -0.0969
vn 0.8925 0.3794 0.2438
vn 0.7124 0.5407 -0.4474
vn 0.5392 0.5018 -0.6764
vn 0.6640 0.7279 -0.1712
vn 0.4512 -0.4362 -0.7785
vn 0.1749 -0.4405 -0.8806
vn 0.2070 -0.6342 -0.7450
vn -0.1483 -0.3826 -0.9119
vn -0.4231 -0.3564 -0.8330
vn 0.4649 -0.2222 -0.8570
vn 0.7070 -0.2250 -0.6704
vn 0.1124 -0.2044 -0.9724
vn -0.1907 -0.1580 -0.9688
vn -0.6612 -0.3683 -0.6535
vn -0.3834 -0.1212 -0.9156
vn 0.4622 0.1391 -0.8758
vn -0.2509 0.1115 -0.9616
vn 0.0823 0.1570 -0.9842
vn -0.4261 0.1122 -0.8977
vn -0.6467 -0.0688 -0.7596
vn 0.4075 0.4749 -0.7800
vn 0.0859 0.5071 -0.8576
vn -0.4805 0.3771 -0.7918
vn -0.2813 0.4610 -0.8416
vn -0.6283 0.3065 -0.7150
vn -0.8330 -0.3856 -0.3969
vn -0.8729 -0.4642 -0.1500
vn -0.8227 -0.5615 0.0891
vn -0.7228 -0.5609 0.4037
vn -0.8692 -0.0645 -0.4902
vn -0.9653 -0.1101 -0.2368
vn -0.9731 -0.1969 0.1195
vn -0.8268 -0.2679 0.4946
vn -0.6353 0.1784 -0.7514
vn -0.8421 0.2071 -0.4979
vn -0.9469 0.1911 -0.2585
vn -0.9705 0.2235 0.0902
vn -0.8814 0.2043 0.4259
vn -0.7620 0.3838 -0.5215
vn -0.8520 0.5147 0.0957
vn -0.8542 0.4766 -0.2076
vn -0.7739 0.5438 0.3247
usemtl wire_115115115
s 1
f 1/1/1 3/2/2 4/3/3
f 4/3/3 5/4/4 6/5/5
f 5/4/4 8/6/6 6/5/5
f 7/7/7 10/8/8 8/6/6
f 9/9/9 12/10/10 10/8/8
f 2/11/11 14/12/12 3/2/2
f 3/2/2 15/13/13 5/4/4
f 15/13/13 7/7/7 5/4/4
f 16/14/14 9/9/9 7/7/7
f 17/15/15 11/16/16 9/9/9
f 19/17/17 14/12/12 13/18/18
f 20/19/19 15/13/13 14/12/12
f 21/20/20 16/14/14 15/13/13
f 16/14/14 23/21/21 17/15/15
f 17/15/15 24/22/22 18/23/23
f 25/24/24 20/19/19 19/17/17
f 26/25/25 21/20/20 20/19/19
f 27/26/26 22/27/27 21/20/20
f 22/27/27 29/28/28 23/21/21
f 23/21/21 30/29/29 24/22/22
f 31/30/30 26/25/25 25/24/24
f 32/31/31 27/26/26 26/25/25
f 33/32/32 28/33/33 27/26/26
f 28/33/33 35/34/34 29/28/28
f 29/28/28 36/35/35 30/29/29
f 37/36/36 39/37/37 40/38/38
f 38/39/39 42/40/40 39/37/37
f 43/41/41 42/40/40 41/42/42
f 45/43/43 44/44/44 43/41/41
f 47/45/45 46/46/46 45/43/43
f 40/38/38 49/47/47 50/48/48
f 39/37/37 51/49/49 49/47/47
f 44/44/44 51/49/49 42/40/40
f 46/46/46 52/50/50 44/44/44
f 48/51/51 53/52/52 46/46/46
f 49/47/47 56/53/53 50/48/48
f 51/49/49 55/54/54 49/47/47
f 52/50/50 57/55/55 51/49/49
f 53/52/52 58/56/56 52/50/50
f 54/57/57 59/58/58 53/52/52
f 55/54/54 62/59/59 56/53/53
f 57/55/55 61/60/60 55/54/54
f 58/56/56 63/61/61 57/55/55
f 59/58/58 64/62/62 58/56/56
f 59/58/58 66/63/63 65/64/64
f 61/60/60 68/65/65 62/59/59
f 63/61/61 67/66/66 61/60/60
f 63/61/61 70/67/67 69/68/68
f 64/62/62 71/69/69 70/67/67
f 65/64/64 72/70/70 71/69/69
f 1/71/1 73/72/71 74/73/72
f 4/74/3 75/75/73 73/72/71
f 8/76/6 75/75/73 6/77/5
f 10/78/8 76/79/74 8/76/6
f 12/80/10 77/81/75 10/78/8
f 74/73/72 79/82/76 80/83/77
f 73/72/71 81/84/78 79/82/76
f 75/75/73 82/85/79 81/84/78
f 76/79/74 83/86/80 82/85/79
f 78/87/81 83/86/80 77/81/75
f 80/83/77 85/88/82 86/89/83
f 79/82/76 87/90/84 85/88/82
f 81/84/78 88/91/85 87/90/84
f 82/85/79 89/92/86 88/91/85
f 84/93/87 89/92/86 83/86/80
f 85/88/82 92/94/88 86/89/83
f 87/90/84 91/95/89 85/88/82
f 88/91/85 93/96/90 87/90/84
f 88/91/85 95/97/91 94/98/92
f 89/92/86 96/99/93 95/97/91
f 91/95/89 37/100/36 92/94/88
f 93/96/90 38/101/39 91/95/89
f 94/98/92 41/102/42 93/96/90
f 94/98/92 45/103/43 43/104/41
f 95/97/91 47/105/45 45/103/43
f 12/106/10 97/107/94 78/108/81
f 11/109/16 98/110/95 97/107/94
f 24/111/22 98/110/95 18/112/23
f 30/113/29 99/114/96 24/111/22
f 36/115/35 100/116/97 30/113/29
f 78/108/81 102/117/98 84/118/87
f 97/107/94 103/119/99 102/117/98
f 99/114/96 103/119/99 98/110/95
f 100/116/97 104/120/100 99/114/96
f 101/121/101 105/122/102 100/116/97
f 84/118/87 107/123/103 90/124/104
f 103/119/99 107/123/103 102/117/98
f 104/120/100 108/125/105 103/119/99
f 105/122/102 109/126/106 104/120/100
f 105/122/102 111/127/107 110/128/108
f 107/123/103 96/129/93 90/124/104
f 108/125/105 112/130/109 107/123/103
f 108/125/105 114/131/110 113/132/111
f 109/126/106 115/133/112 114/131/110
f 110/128/108 116/134/113 115/133/112
f 112/130/109 47/135/45 96/129/93
f 113/132/111 48/136/51 112/130/109
f 114/131/110 54/137/57 113/132/111
f 114/131/110 66/138/63 60/139/114
f 115/133/112 72/140/70 66/138/63
f 36/141/35 117/142/115 101/143/101
f 35/144/34 118/145/116 117/142/115
f 34/146/117 119/147/118 118/145/116
f 32/148/31 119/147/118 33/149/32
f 31/150/30 120/151/119 32/148/31
f 101/143/101 122/152/120 106/153/121
f 117/142/115 123/154/122 122/152/120
f 118/145/116 124/155/123 123/154/122
f 120/151/119 124/155/123 119/147/118
f 121/156/124 125/157/125 120/151/119
f 106/153/121 127/158/126 111/159/107
f 123/154/122 127/158/126 122/152/120
f 123/154/122 129/160/127 128/161/128
f 124/155/123 130/162/129 129/160/127
f 126/163/130 130/162/129 125/157/125
f 127/158/126 116/164/113 111/159/107
f 128/161/128 132/165/131 127/158/126
f 129/160/127 133/166/132 128/161/128
f 129/160/127 135/167/133 134/168/134
f 130/162/129 136/169/135 135/167/133
f 132/165/131 72/170/70 116/164/113
f 133/166/132 71/171/69 132/165/131
f 133/166/132 69/172/68 70/173/67
f 134/168/134 67/174/66 69/172/68
f 135/167/133 68/175/65 67/174/66
f 31/176/30 137/177/136 121/178/124
f 25/179/24 138/180/137 137/177/136
f 19/181/17 139/182/138 138/180/137
f 2/183/11 139/182/138 13/184/18
f 1/185/1 140/186/139 2/183/11
f 121/178/124 141/187/140 126/188/130
f 137/177/136 142/189/141 141/187/140
f 139/182/138 142/189/141 138/180/137
f 140/186/139 143/190/142 139/182/138
f 74/191/72 144/192/143 140/186/139
f 141/187/140 131/193/144 126/188/130
f 142/189/141 145/194/145 141/187/140
f 143/190/142 146/195/146 142/189/141
f 144/192/143 147/196/147 143/190/142
f 80/197/77 148/198/148 144/192/143
f 145/194/145 136/199/135 131/193/144
f 146/195/146 149/200/149 145/194/145
f 146/195/146 151/201/150 150/202/151
f 147/196/147 152/203/152 151/201/150
f 148/198/148 92/204/88 152/203/152
f 149/200/149 68/205/65 136/199/135
f 150/202/151 62/206/59 149/200/149
f 150/202/151 50/207/48 56/208/53
f 151/201/150 40/209/38 50/207/48
f 152/203/152 37/210/36 40/209/38
f 1/1/1 2/11/11 3/2/2
f 4/3/3 3/2/2 5/4/4
f 5/4/4 7/7/7 8/6/6
f 7/7/7 9/9/9 10/8/8
f 9/9/9 11/16/16 12/10/10
f 2/11/11 13/18/18 14/12/12
f 3/2/2 14/12/12 15/13/13
f 15/13/13 16/14/14 7/7/7
f 16/14/14 17/15/15 9/9/9
f 17/15/15 18/23/23 11/16/16
f 19/17/17 20/19/19 14/12/12
f 20/19/19 21/20/20 15/13/13
f 21/20/20 22/27/27 16/14/14
f 16/14/14 22/27/27 23/21/21
f 17/15/15 23/21/21 24/22/22
f 25/24/24 26/25/25 20/19/19
f 26/25/25 27/26/26 21/20/20
f 27/26/26 28/33/33 22/27/27
f 22/27/27 28/33/33 29/28/28
f 23/21/21 29/28/28 30/29/29
f 31/30/30 32/31/31 26/25/25
f 32/31/31 33/32/32 27/26/26
f 33/32/32 34/211/117 28/33/33
f 28/33/33 34/211/117 35/34/34
f 29/28/28 35/34/34 36/35/35
f 37/36/36 38/39/39 39/37/37
f 38/39/39 41/42/42 42/40/40
f 43/41/41 44/44/44 42/40/40
f 45/43/43 46/46/46 44/44/44
f 47/45/45 48/51/51 46/46/46
f 40/38/38 39/37/37 49/47/47
f 39/37/37 42/40/40 51/49/49
f 44/44/44 52/50/50 51/49/49
f 46/46/46 53/52/52 52/50/50
f 48/51/51 54/57/57 53/52/52
f 49/47/47 55/54/54 56/53/53
f 51/49/49 57/55/55 55/54/54
f 52/50/50 58/56/56 57/55/55
f 53/52/52 59/58/58 58/56/56
f 54/57/57 60/212/114 59/58/58
f 55/54/54 61/60/60 62/59/59
f 57/55/55 63/61/61 61/60/60
f 58/56/56 64/62/62 63/61/61
f 59/58/58 65/64/64 64/62/62
f 59/58/58 60/212/114 66/63/63
f 61/60/60 67/66/66 68/65/65
f 63/61/61 69/68/68 67/66/66
f 63/61/61 64/62/62 70/67/67
f 64/62/62 65/64/64 71/69/69
f 65/64/64 66/63/63 72/70/70
f 1/71/1 4/74/3 73/72/71
f 4/74/3 6/77/5 75/75/73
f 8/76/6 76/79/74 75/75/73
f 10/78/8 77/81/75 76/79/74
f 12/80/10 78/87/81 77/81/75
f 74/73/72 73/72/71 79/82/76
f 73/72/71 75/75/73 81/84/78
f 75/75/73 76/79/74 82/85/79
f 76/79/74 77/81/75 83/86/80
f 78/87/81 84/93/87 83/86/80
f 80/83/77 79/82/76 85/88/82
f 79/82/76 81/84/78 87/90/84
f 81/84/78 82/85/79 88/91/85
f 82/85/79 83/86/80 89/92/86
f 84/93/87 90/213/104 89/92/86
f 85/88/82 91/95/89 92/94/88
f 87/90/84 93/96/90 91/95/89
f 88/91/85 94/98/92 93/96/90
f 88/91/85 89/92/86 95/97/91
f 89/92/86 90/213/104 96/99/93
f 91/95/89 38/101/39 37/100/36
f 93/96/90 41/102/42 38/101/39
f 94/98/92 43/104/41 41/102/42
f 94/98/92 95/97/91 45/103/43
f 95/97/91 96/99/93 47/105/45
f 12/106/10 11/109/16 97/107/94
f 11/109/16 18/112/23 98/110/95
f 24/111/22 99/114/96 98/110/95
f 30/113/29 100/116/97 99/114/96
f 36/115/35 101/121/101 100/116/97
f 78/108/81 97/107/94 102/117/98
f 97/107/94 98/110/95 103/119/99
f 99/114/96 104/120/100 103/119/99
f 100/116/97 105/122/102 104/120/100
f 101/121/101 106/214/121 105/122/102
f 84/118/87 102/117/98 107/123/103
f 103/119/99 108/125/105 107/123/103
f 104/120/100 109/126/106 108/125/105
f 105/122/102 110/128/108 109/126/106
f 105/122/102 106/214/121 111/127/107
f 107/123/103 112/130/109 96/129/93
f 108/125/105 113/132/111 112/130/109
f 108/125/105 109/126/106 114/131/110
f 109/126/106 110/128/108 115/133/112
f 110/128/108 111/127/107 116/134/113
f 112/130/109 48/136/51 47/135/45
f 113/132/111 54/137/57 48/136/51
f 114/131/110 60/139/114 54/137/57
f 114/131/110 115/133/112 66/138/63
f 115/133/112 116/134/113 72/140/70
f 36/141/35 35/144/34 117/142/115
f 35/144/34 34/146/117 118/145/116
f 34/146/117 33/149/32 119/147/118
f 32/148/31 120/151/119 119/147/118
f 31/150/30 121/156/124 120/151/119
f 101/143/101 117/142/115 122/152/120
f 117/142/115 118/145/116 123/154/122
f 118/145/116 119/147/118 124/155/123
f 120/151/119 125/157/125 124/155/123
f 121/156/124 126/163/130 125/157/125
f 106/153/121 122/152/120 127/158/126
f 123/154/122 128/161/128 127/158/126
f 123/154/122 124/155/123 129/160/127
f 124/155/123 125/157/125 130/162/129
f 126/163/130 131/215/144 130/162/129
f 127/158/126 132/165/131 116/164/113
f 128/161/128 133/166/132 132/165/131
f 129/160/127 134/168/134 133/166/132
f 129/160/127 130/162/129 135/167/133
f 130/162/129 131/215/144 136/169/135
f 132/165/131 71/171/69 72/170/70
f 133/166/132 70/173/67 71/171/69
f 133/166/132 134/168/134 69/172/68
f 134/168/134 135/167/133 67/174/66
f 135/167/133 136/169/135 68/175/65
f 31/176/30 25/179/24 137/177/136
f 25/179/24 19/181/17 138/180/137
f 19/181/17 13/184/18 139/182/138
f 2/183/11 140/186/139 139/182/138
f 1/185/1 74/191/72 140/186/139
f 121/178/124 137/177/136 141/187/140
f 137/177/136 138/180/137 142/189/141
f 139/182/138 143/190/142 142/189/141
f 140/186/139 144/192/143 143/190/142
f 74/191/72 80/197/77 144/192/143
f 141/187/140 145/194/145 131/193/144
f 142/189/141 146/195/146 145/194/145
f 143/190/142 147/196/147 146/195/146
f 144/192/143 148/198/148 147/196/147
f 80/197/77 86/216/83 148/198/148
f 145/194/145 149/200/149 136/199/135
f 146/195/146 150/202/151 149/200/149
f 146/195/146 147/196/147 151/201/150
f 147/196/147 148/198/148 152/203/152
f 148/198/148 86/216/83 92/204/88
f 149/200/149 62/206/59 68/205/65
f 150/202/151 56/208/53 62/206/59
f 150/202/151 151/201/150 50/207/48
f 151/201/150 152/203/152 40/209/38
f 152/203/152 92/204/88 37/210/36
